<svg width="151" height="150" viewBox="0 0 151 150" fill="none" xmlns="http://www.w3.org/2000/svg">
<path d="M121.04 75.3746V120.825H75.5897V107.25C70.4897 107.25 66.3647 103.125 66.3647 98.0246C66.3647 92.9246 70.4897 88.7996 75.5897 88.7996V75.2246" stroke="#0C233C" stroke-width="3.6" stroke-linecap="round" stroke-linejoin="round"/>
<path d="M30.0645 75.3742V49.1992" stroke="#0C233C" stroke-width="3.6" stroke-linecap="round" stroke-linejoin="round"/>
<path d="M30.0645 43.9508V29.9258H75.5145" stroke="#0C233C" stroke-width="3.6" stroke-linecap="round" stroke-linejoin="round"/>
<path d="M102.89 29.9258H75.5146V43.5008C80.6146 43.5008 84.7396 47.6258 84.7396 52.7258C84.7396 57.8258 80.6146 61.9508 75.5146 61.9508V75.4508H89.0896C89.0896 80.5508 93.2146 84.6758 98.3146 84.6758C103.415 84.6758 107.54 80.5508 107.54 75.4508H121.115V30.0008H109.04" stroke="#77BB33" stroke-width="3.6" stroke-linecap="round" stroke-linejoin="round"/>
<path d="M75.5146 107.324V120.824H63.2896" stroke="#0C233C" stroke-width="3.6" stroke-linecap="round" stroke-linejoin="round"/>
<path d="M57.4395 120.825H30.0645V75.3754H43.6395C43.6395 70.2754 47.7645 66.1504 52.8645 66.1504C57.9645 66.1504 62.0895 70.2754 62.0895 75.3754H75.5895V88.9504" stroke="#0C233C" stroke-width="3.6" stroke-linecap="round" stroke-linejoin="round"/>
</svg>
