<svg width="175" height="175" viewBox="0 0 175 175" fill="none" xmlns="http://www.w3.org/2000/svg">
<path d="M139.825 30.3633H39.4625C36.5147 30.3633 34.125 32.753 34.125 35.7008V133.526C34.125 136.474 36.5147 138.863 39.4625 138.863H139.825C142.773 138.863 145.162 136.474 145.162 133.526V35.7008C145.162 32.753 142.773 30.3633 139.825 30.3633Z" stroke="#0C233C" stroke-width="3.6" stroke-linecap="round" stroke-linejoin="round"/>
<path d="M39.4625 30.3633H139.737C142.712 30.3633 145.075 32.7258 145.075 35.7008V50.4883H34.125V35.7008C34.125 32.7258 36.4875 30.3633 39.4625 30.3633Z" stroke="#0C233C" stroke-width="3.6" stroke-linecap="round" stroke-linejoin="round"/>
<path d="M47.6 42.7004C49.098 42.7004 50.3125 41.486 50.3125 39.9879C50.3125 38.4898 49.098 37.2754 47.6 37.2754C46.1019 37.2754 44.8875 38.4898 44.8875 39.9879C44.8875 41.486 46.1019 42.7004 47.6 42.7004Z" stroke="#0C233C" stroke-width="3.6" stroke-linecap="round" stroke-linejoin="round"/>
<path d="M58.7125 42.7004C60.2106 42.7004 61.425 41.486 61.425 39.9879C61.425 38.4898 60.2106 37.2754 58.7125 37.2754C57.2144 37.2754 56 38.4898 56 39.9879C56 41.486 57.2144 42.7004 58.7125 42.7004Z" stroke="#0C233C" stroke-width="3.6" stroke-linecap="round" stroke-linejoin="round"/>
<path d="M69.8251 42.7004C71.3231 42.7004 72.5376 41.486 72.5376 39.9879C72.5376 38.4898 71.3231 37.2754 69.8251 37.2754C68.327 37.2754 67.1125 38.4898 67.1125 39.9879C67.1125 41.486 68.327 42.7004 69.8251 42.7004Z" stroke="#0C233C" stroke-width="3.6" stroke-linecap="round" stroke-linejoin="round"/>
<path d="M67.2874 83.9992V111.474H21.7874C18.9874 111.474 16.7124 109.199 16.7124 106.399V75.7742C16.7124 72.9742 18.9874 70.6992 21.7874 70.6992H67.1999V78.0492" fill="white"/>
<path d="M67.2874 83.9992V111.474H21.7874C18.9874 111.474 16.7124 109.199 16.7124 106.399V75.7742C16.7124 72.9742 18.9874 70.6992 21.7874 70.6992H67.1999V78.0492" stroke="#77BB33" stroke-width="3.6" stroke-linecap="round" stroke-linejoin="round"/>
<path d="M67.2873 93.0117H16.7998V100.799H67.2873V93.0117Z" fill="white" stroke="#77BB33" stroke-width="3.6" stroke-linecap="round" stroke-linejoin="round"/>
<path d="M74.7249 74.8125L84.3499 91.175L74.7249 107.45" fill="white"/>
<path d="M74.7249 74.8125L84.3499 91.175L74.7249 107.45" stroke="#77BB33" stroke-width="3.6" stroke-linecap="round" stroke-linejoin="round"/>
<path d="M85.575 74.8125L95.2 91.175L85.575 107.45" fill="white"/>
<path d="M85.575 74.8125L95.2 91.175L85.575 107.45" stroke="#77BB33" stroke-width="3.6" stroke-linecap="round" stroke-linejoin="round"/>
<path d="M151.025 65.1875V108.938" stroke="#0C233C" stroke-width="3.6" stroke-linecap="round" stroke-linejoin="round"/>
<path d="M58.7124 144.637H90.3874" stroke="#0C233C" stroke-width="3.6" stroke-linecap="round" stroke-linejoin="round"/>
<path d="M129.325 76.6504H105.35C103.949 76.6504 102.812 77.7865 102.812 79.1879V103.163C102.812 104.564 103.949 105.7 105.35 105.7H129.325C130.726 105.7 131.862 104.564 131.862 103.163V79.1879C131.862 77.7865 130.726 76.6504 129.325 76.6504Z" fill="white" stroke="#0C233C" stroke-width="3.6" stroke-linecap="round" stroke-linejoin="round"/>
<path d="M136.062 78.4883L117.512 96.6883L110.075 89.4258" stroke="#77BB33" stroke-width="3.6" stroke-linecap="round" stroke-linejoin="round"/>
</svg>
