<svg width="151" height="150" viewBox="0 0 151 150" fill="none" xmlns="http://www.w3.org/2000/svg">
<path d="M14.9146 93.2246H101.315" stroke="#0B233B" stroke-width="3.6" stroke-linecap="round" stroke-linejoin="round"/>
<path d="M32.6146 108.375H9.13965" stroke="#0C233B" stroke-width="3.6" stroke-linecap="round" stroke-linejoin="round"/>
<path d="M128.015 116.625H62.6147" stroke="#0C233B" stroke-width="3.6" stroke-linecap="round" stroke-linejoin="round"/>
<path d="M141.439 108.75H109.189" stroke="#0C233B" stroke-width="3.6" stroke-linecap="round" stroke-linejoin="round"/>
<path d="M12.8896 116.625H19.7146" stroke="#0C233B" stroke-width="3.6" stroke-linecap="round" stroke-linejoin="round"/>
<path d="M137.765 85.125H13.9397C13.9397 85.125 12.1397 108.75 38.1647 108.75H113.465C139.565 108.75 137.69 85.125 137.69 85.125H137.765Z" stroke="#78BB43" stroke-width="3.6" stroke-linecap="round" stroke-linejoin="round"/>
<path d="M19.7144 85.1258V40.6508H102.439V30.3008L137.764 85.1258H19.7144Z" stroke="#0B233B" stroke-width="3.6" stroke-linecap="round" stroke-linejoin="round"/>
<path d="M110.24 95.5504C111.524 95.5504 112.565 94.5095 112.565 93.2254C112.565 91.9413 111.524 90.9004 110.24 90.9004C108.955 90.9004 107.915 91.9413 107.915 93.2254C107.915 94.5095 108.955 95.5504 110.24 95.5504Z" stroke="#78BB43" stroke-width="3.6" stroke-linecap="round" stroke-linejoin="round"/>
<path d="M121.865 95.5504C123.149 95.5504 124.19 94.5095 124.19 93.2254C124.19 91.9413 123.149 90.9004 121.865 90.9004C120.58 90.9004 119.54 91.9413 119.54 93.2254C119.54 94.5095 120.58 95.5504 121.865 95.5504Z" stroke="#78BB43" stroke-width="3.6" stroke-linecap="round" stroke-linejoin="round"/>
<path d="M33.5145 53.3242H26.6895V60.1492H33.5145V53.3242Z" stroke="#0B233B" stroke-width="3.6" stroke-linecap="round" stroke-linejoin="round"/>
<path d="M48.6644 53.3242H41.8394V60.1492H48.6644V53.3242Z" stroke="#0B233B" stroke-width="3.6" stroke-linecap="round" stroke-linejoin="round"/>
<path d="M63.8147 53.3242H56.9897V60.1492H63.8147V53.3242Z" stroke="#0B233B" stroke-width="3.6" stroke-linecap="round" stroke-linejoin="round"/>
<path d="M78.8895 53.3242H72.0645V60.1492H78.8895V53.3242Z" stroke="#0B233B" stroke-width="3.6" stroke-linecap="round" stroke-linejoin="round"/>
<path d="M94.0394 53.3242H87.2144V60.1492H94.0394V53.3242Z" stroke="#0B233B" stroke-width="3.6" stroke-linecap="round" stroke-linejoin="round"/>
<path d="M109.115 53.3242H102.29V60.1492H109.115V53.3242Z" stroke="#0B233B" stroke-width="3.6" stroke-linecap="round" stroke-linejoin="round"/>
<path d="M33.5145 67.6504H26.6895V74.4754H33.5145V67.6504Z" stroke="#0B233B" stroke-width="3.6" stroke-linecap="round" stroke-linejoin="round"/>
<path d="M48.6644 67.6504H41.8394V74.4754H48.6644V67.6504Z" stroke="#0B233B" stroke-width="3.6" stroke-linecap="round" stroke-linejoin="round"/>
<path d="M63.8147 67.6504H56.9897V74.4754H63.8147V67.6504Z" stroke="#0B233B" stroke-width="3.6" stroke-linecap="round" stroke-linejoin="round"/>
<path d="M78.8895 67.6504H72.0645V74.4754H78.8895V67.6504Z" stroke="#0B233B" stroke-width="3.6" stroke-linecap="round" stroke-linejoin="round"/>
<path d="M94.0394 67.6504H87.2144V74.4754H94.0394V67.6504Z" stroke="#0B233B" stroke-width="3.6" stroke-linecap="round" stroke-linejoin="round"/>
<path d="M109.115 67.6504H102.29V74.4754H109.115V67.6504Z" stroke="#0B233B" stroke-width="3.6" stroke-linecap="round" stroke-linejoin="round"/>
<path d="M118.115 54.3742V40.9492" stroke="#0B233B" stroke-width="3.6" stroke-linecap="round" stroke-linejoin="round"/>
</svg>
