<svg width="30" height="30" viewBox="0 0 30 30" fill="none" xmlns="http://www.w3.org/2000/svg">
<path d="M15 0.5C6.74999 0.5 0 7.03665 0 15.0874C0 22.3665 5.48999 28.4081 12.66 29.5V19.3092H8.84999V15.0874H12.66V11.87C12.66 8.21586 14.895 6.20683 18.33 6.20683C19.965 6.20683 21.675 6.48343 21.675 6.48343V10.0793H19.785C17.925 10.0793 17.34 11.2003 17.34 12.3504V15.0874H21.51L20.835 19.3092H17.34V29.5C20.8746 28.9582 24.0933 27.2078 26.4149 24.5648C28.7364 21.9219 30.008 18.5604 30 15.0874C30 7.03665 23.25 0.5 15 0.5Z" fill="white"/>
</svg>
