<svg width="175" height="175" viewBox="0 0 175 175" fill="none" xmlns="http://www.w3.org/2000/svg">
<path d="M135.975 125.474V149.362H42.5249V48.7367L65.7124 25.6367H135.975V120.487" fill="white"/>
<path d="M135.975 125.474V149.362H42.5249V48.7367L65.7124 25.6367H135.975V120.487" stroke="#0C233C" stroke-width="3.6" stroke-linecap="round" stroke-linejoin="round"/>
<path d="M65.7124 25.6367V48.7367H42.5249L65.7124 25.6367Z" fill="white" stroke="#0C233C" stroke-width="3.6" stroke-linecap="round" stroke-linejoin="round"/>
<path d="M125.446 110.922C128.211 101.762 123.028 92.0941 113.868 89.3285C104.708 86.563 95.0401 91.7467 92.2746 100.907C89.509 110.067 94.6927 119.734 103.853 122.5C113.013 125.265 122.68 120.082 125.446 110.922Z" stroke="#77BB33" stroke-width="3.6" stroke-linecap="round" stroke-linejoin="round"/>
<path d="M118.65 99.2246L104.738 112.875L99.2251 107.362" stroke="#77BB33" stroke-width="3.6" stroke-linecap="round" stroke-linejoin="round"/>
<path d="M81.169 98.9869C88.2685 92.572 88.8235 81.6165 82.4086 74.517C75.9937 67.4176 65.0382 66.8626 57.9387 73.2774C50.8392 79.6923 50.2843 90.6478 56.6991 97.7473C63.114 104.847 74.0695 105.402 81.169 98.9869Z" stroke="#77BB33" stroke-width="3.6" stroke-linecap="round" stroke-linejoin="round"/>
<path d="M60.9875 77.4375L78.1376 94.5875" stroke="#77BB33" stroke-width="3.6" stroke-linecap="round" stroke-linejoin="round"/>
<path d="M78.1376 77.4375L60.9875 94.5875" stroke="#77BB33" stroke-width="3.6" stroke-linecap="round" stroke-linejoin="round"/>
<path d="M96.6875 68.6875H126.263" stroke="#0C233C" stroke-width="3.6" stroke-linecap="round" stroke-linejoin="round"/>
<path d="M108.938 74.5508H126.263" stroke="#0C233C" stroke-width="3.6" stroke-linecap="round" stroke-linejoin="round"/>
<path d="M81.8125 117.426H52.2375" stroke="#0C233C" stroke-width="3.6" stroke-linecap="round" stroke-linejoin="round"/>
<path d="M69.5625 123.375H52.2375" stroke="#0C233C" stroke-width="3.6" stroke-linecap="round" stroke-linejoin="round"/>
<path d="M72.5376 39.4629H105.963" stroke="#0C233C" stroke-width="3.6" stroke-linecap="round" stroke-linejoin="round"/>
</svg>
