<svg width="151" height="150" viewBox="0 0 151 150" fill="none" xmlns="http://www.w3.org/2000/svg">
<path d="M30.3647 94.4258H21.8897C18.2147 94.4258 15.3647 91.2758 15.7397 87.6008L20.9147 38.7758C21.2147 35.6258 23.9147 33.3008 27.0647 33.3008H71.9147" stroke="#78BA43" stroke-width="3.6" stroke-linecap="round" stroke-linejoin="round"/>
<path d="M78.1396 33.3008H84.6646C88.0396 33.3008 90.8146 36.0758 90.8146 39.4508V94.4258H49.6396" stroke="#78BA43" stroke-width="3.6" stroke-linecap="round" stroke-linejoin="round"/>
<path d="M70.1899 58.2012H63.4399V51.4512H52.1899V58.2012H45.4399V69.4512H52.1899V76.2012H63.4399V69.4512H70.1899V58.2012Z" stroke="#78BA43" stroke-width="3.6" stroke-linecap="round" stroke-linejoin="round"/>
<path d="M108.514 94.425H90.8145V48H116.239L124.864 73.95L136.039 76.2V94.425H127.789" stroke="#0C233B" stroke-width="3.6" stroke-linecap="round" stroke-linejoin="round"/>
<path d="M124.864 73.95H90.8145V48H116.239L124.864 73.95Z" stroke="#0C233B" stroke-width="3.6" stroke-linecap="round" stroke-linejoin="round"/>
<path d="M50.3942 101.954C51.3412 96.1067 47.3689 90.599 41.5219 89.652C35.6748 88.705 30.1671 92.6772 29.2201 98.5243C28.2731 104.371 32.2453 109.879 38.0924 110.826C43.9395 111.773 49.4472 107.801 50.3942 101.954Z" stroke="#0C233B" stroke-width="3.6" stroke-linecap="round" stroke-linejoin="round"/>
<path d="M43.6398 100.275C43.6398 102.375 41.9148 104.175 39.7398 104.175C37.5648 104.175 35.8398 102.45 35.8398 100.275C35.8398 98.1 37.5648 96.375 39.7398 96.375C41.9148 96.375 43.6398 98.1 43.6398 100.275Z" stroke="#0C233B" stroke-width="3.6" stroke-linecap="round" stroke-linejoin="round"/>
<path d="M129.147 101.919C130.094 96.0715 126.121 90.5638 120.274 89.6168C114.427 88.6698 108.92 92.6421 107.973 98.4891C107.026 104.336 110.998 109.844 116.845 110.791C122.692 111.738 128.2 107.766 129.147 101.919Z" stroke="#0C233B" stroke-width="3.6" stroke-linecap="round" stroke-linejoin="round"/>
<path d="M122.465 100.275C122.465 102.375 120.74 104.175 118.565 104.175C116.39 104.175 114.665 102.45 114.665 100.275C114.665 98.1 116.39 96.375 118.565 96.375C120.74 96.375 122.465 98.1 122.465 100.275Z" stroke="#0C233B" stroke-width="3.6" stroke-linecap="round" stroke-linejoin="round"/>
<path d="M136.04 88.1242H132.365C130.94 88.1242 129.815 86.9992 129.815 85.5742V84.1492C129.815 82.7242 130.94 81.5992 132.365 81.5992H136.04V88.1992V88.1242Z" stroke="#0C233B" stroke-width="3.6" stroke-linecap="round" stroke-linejoin="round"/>
<path d="M101.689 63.3008L108.139 56.9258" stroke="#0C233B" stroke-width="3.6" stroke-linecap="round" stroke-linejoin="round"/>
<path d="M107.99 67.9496L111.14 64.7246" stroke="#0C233B" stroke-width="3.6" stroke-linecap="round" stroke-linejoin="round"/>
<path d="M118.564 111H70.1895" stroke="#0C233B" stroke-width="3.6" stroke-linecap="round" stroke-linejoin="round"/>
<path d="M84.8145 117.15H97.8645" stroke="#0C233B" stroke-width="3.6" stroke-linecap="round" stroke-linejoin="round"/>
<path d="M39.7396 111H17.0146" stroke="#0C233B" stroke-width="3.6" stroke-linecap="round" stroke-linejoin="round"/>
<path d="M23.9146 117.15H30.5896" stroke="#0C233B" stroke-width="3.6" stroke-linecap="round" stroke-linejoin="round"/>
<path d="M39.2896 52.0508H46.0396V45.3008" stroke="#0C233B" stroke-width="3.6" stroke-linecap="round" stroke-linejoin="round"/>
</svg>
