<svg width="30" height="30" viewBox="0 0 30 30" fill="none" xmlns="http://www.w3.org/2000/svg">
<path d="M15 0.0102539C6.74999 0.0102539 0 6.5469 0 14.5976C0 21.8767 5.48999 27.9184 12.66 29.0103V18.8195H8.84999V14.5976H12.66V11.3802C12.66 7.72612 14.895 5.71708 18.33 5.71708C19.965 5.71708 21.675 5.99369 21.675 5.99369V9.58957H19.785C17.925 9.58957 17.34 10.7106 17.34 11.8607V14.5976H21.51L20.835 18.8195H17.34V29.0103C20.8746 28.4685 24.0933 26.7181 26.4149 24.0751C28.7364 21.4321 30.008 18.0707 30 14.5976C30 6.5469 23.25 0.0102539 15 0.0102539Z" fill="#212629"/>
</svg>
