<svg width="23" height="23" viewBox="0 0 23 23" fill="none" xmlns="http://www.w3.org/2000/svg">
<path d="M7.15413 10.5886L10.8208 2.33862C11.5501 2.33862 12.2496 2.62835 12.7653 3.14407C13.2811 3.6598 13.5708 4.35927 13.5708 5.08862V8.75528H18.7591C19.0249 8.75227 19.2881 8.80708 19.5306 8.9159C19.773 9.02472 19.9889 9.18496 20.1633 9.3855C20.3377 9.58605 20.4664 9.82212 20.5405 10.0774C20.6146 10.3326 20.6323 10.6009 20.5925 10.8636L19.3275 19.1136C19.2612 19.5508 19.0391 19.9493 18.7022 20.2357C18.3653 20.522 17.9363 20.677 17.4941 20.672H7.15413M7.15413 10.5886V20.672M7.15413 10.5886H4.40413C3.9179 10.5886 3.45159 10.7818 3.10777 11.1256C2.76395 11.4694 2.5708 11.9357 2.5708 12.422V18.8386C2.5708 19.3249 2.76395 19.7912 3.10777 20.135C3.45159 20.4788 3.9179 20.672 4.40413 20.672H7.15413" stroke="#1E1E1E" stroke-width="2" stroke-linecap="round" stroke-linejoin="round"/>
</svg>
