<svg width="20" height="20" viewBox="0 0 20 20" fill="none" xmlns="http://www.w3.org/2000/svg">
<mask id="mask0_1158_2674" style="mask-type:luminance" maskUnits="userSpaceOnUse" x="0" y="0" width="20" height="20">
<path fill-rule="evenodd" clip-rule="evenodd" d="M13.1737 12.375H14.0625L19.6763 18L18 19.6763L12.375 14.0625V13.1737L12.0712 12.8588C10.7887 13.9613 9.12375 14.625 7.3125 14.625C3.27375 14.625 0 11.3512 0 7.3125C0 3.27375 3.27375 0 7.3125 0C11.3512 0 14.625 3.27375 14.625 7.3125C14.625 9.12375 13.9613 10.7887 12.8588 12.0712L13.1737 12.375ZM2.25 7.3125C2.25 10.1138 4.51125 12.375 7.3125 12.375C10.1138 12.375 12.375 10.1138 12.375 7.3125C12.375 4.51125 10.1138 2.25 7.3125 2.25C4.51125 2.25 2.25 4.51125 2.25 7.3125Z" fill="white"/>
</mask>
<g mask="url(#mask0_1158_2674)">
<path d="M-3.66187 -3.66211H23.3381V23.3379H-3.66187V-3.66211Z" fill="white"/>
</g>
</svg>
