<svg width="30" height="22" viewBox="0 0 30 22" fill="none" xmlns="http://www.w3.org/2000/svg">
<path d="M12 15.0103L19.785 10.5103L12 6.01025V15.0103ZM29.34 3.26525C29.535 3.97025 29.67 4.91525 29.76 6.11525C29.865 7.31525 29.91 8.35025 29.91 9.25025L30 10.5103C30 13.7953 29.76 16.2103 29.34 17.7553C28.965 19.1053 28.095 19.9753 26.745 20.3503C26.04 20.5453 24.75 20.6803 22.77 20.7703C20.82 20.8753 19.035 20.9203 17.385 20.9203L15 21.0103C8.715 21.0103 4.8 20.7703 3.255 20.3503C1.905 19.9753 1.035 19.1053 0.66 17.7553C0.465 17.0503 0.33 16.1053 0.24 14.9053C0.135 13.7053 0.0899999 12.6703 0.0899999 11.7703L0 10.5103C0 7.22525 0.24 4.81025 0.66 3.26525C1.035 1.91525 1.905 1.04525 3.255 0.670254C3.96 0.475254 5.25 0.340254 7.23 0.250254C9.18 0.145254 10.965 0.100254 12.615 0.100254L15 0.0102539C21.285 0.0102539 25.2 0.250254 26.745 0.670254C28.095 1.04525 28.965 1.91525 29.34 3.26525Z" fill="#212629"/>
</svg>
