<svg width="28" height="28" viewBox="0 0 28 28" fill="none" xmlns="http://www.w3.org/2000/svg">
<path d="M26.1261 1.87387C24.973 0.720721 23.3874 0 21.6216 0H13.982H6.37838C4.61261 0 3.02703 0.720721 1.87387 1.87387C0.720721 3.02703 0 4.61261 0 6.34234V13.982V21.6216C0 23.3874 0.720721 24.973 1.87387 26.1261C3.02703 27.2793 4.61261 28 6.37838 28H13.982H21.6216C23.3874 28 24.973 27.2793 26.1261 26.1261C27.2793 24.973 28 23.3874 28 21.6216V13.982V6.34234C28 4.61261 27.2793 3.02703 26.1261 1.87387ZM15.5676 20.3604C14.2342 20.3604 12.973 19.6757 12.5766 18.8468C12.5766 18.8468 11.9279 21.3694 11.7477 21.982C11.4595 23.1351 10.3784 25.009 10.1261 25.4414C9.94594 25.7297 9.33333 25.5135 9.26126 25.1171C9.15315 24.3964 9.04504 22.4865 9.2973 21.3333C9.54955 20.2883 10.8468 14.8108 10.8468 14.8108C10.8468 14.8108 10.4504 14.018 10.4504 12.8649C10.4504 11.027 11.4955 9.65766 12.8288 9.65766C13.9459 9.65766 14.4865 10.4865 14.4865 11.4955C14.4865 12.6126 13.7658 14.3063 13.4054 15.8919C13.0811 17.1892 14.0541 18.2703 15.3513 18.2703C17.6937 18.2703 19.4955 15.8198 19.4955 12.2523C19.4955 9.11712 17.2252 6.91892 13.982 6.91892C10.2342 6.91892 8.03603 9.72973 8.03603 12.6126C8.03603 13.7297 8.46847 14.955 9.00901 15.6036C9.11712 15.7477 9.11712 15.8559 9.08108 15.964C8.97297 16.3604 8.75676 17.2613 8.72072 17.4414C8.64865 17.6937 8.54054 17.7297 8.28829 17.6216C6.63063 16.8649 5.62162 14.4504 5.62162 12.5405C5.62162 8.3964 8.61261 4.57658 14.3063 4.57658C18.8468 4.57658 22.4144 7.81982 22.4144 12.1802C22.3784 16.7207 19.5315 20.3604 15.5676 20.3604Z" fill="white"/>
</svg>
