<svg width="175" height="175" viewBox="0 0 175 175" fill="none" xmlns="http://www.w3.org/2000/svg">
<path d="M94.2374 144.726C125.697 144.726 151.2 119.223 151.2 87.7633C151.2 56.3038 125.697 30.8008 94.2374 30.8008C62.7779 30.8008 37.2749 56.3038 37.2749 87.7633C37.2749 119.223 62.7779 144.726 94.2374 144.726Z" fill="white" stroke="#0C233C" stroke-width="3.6" stroke-linecap="round" stroke-linejoin="round"/>
<path d="M94.2373 30.8008C78.0498 42.1758 67.1123 63.4383 67.1123 87.7633C67.1123 112.088 78.0498 133.351 94.2373 144.726C110.425 133.351 121.362 112.088 121.362 87.7633C121.362 63.4383 110.425 42.1758 94.2373 30.8008Z" fill="white" stroke="#0C233C" stroke-width="3.6" stroke-linecap="round" stroke-linejoin="round"/>
<path d="M51.0125 50.75H137.55" stroke="#0C233C" stroke-width="3.6" stroke-linecap="round" stroke-linejoin="round"/>
<path d="M51.0125 124.863H137.55" stroke="#0C233C" stroke-width="3.6" stroke-linecap="round" stroke-linejoin="round"/>
<path d="M37.2749 87.7637H151.2" stroke="#0C233C" stroke-width="3.6" stroke-linecap="round" stroke-linejoin="round"/>
<path d="M112.7 88.8129C112.7 91.7879 110.25 94.2379 107.275 94.2379H34.5625C31.0625 94.2379 27.825 92.4004 25.9875 89.4254C23.275 84.8754 18.2875 73.6754 17.2375 63.0879H31.7625C31.7625 63.0879 35.525 71.1379 39.725 76.2129H93.8V83.4754H107.363C108.85 83.4754 110.163 84.0879 111.213 85.0504C112.175 86.0129 112.788 87.4129 112.788 88.9004L112.7 88.8129Z" fill="white" stroke="#77BB33" stroke-width="3.6" stroke-linecap="round" stroke-linejoin="round"/>
<path d="M106.488 83.3875H93.8V76.125H97.3C101.763 76.125 105.613 79.1875 106.488 83.3875Z" fill="white" stroke="#77BB33" stroke-width="3.6" stroke-linecap="round" stroke-linejoin="round"/>
<path d="M57.9249 83.3879C57.9249 84.7004 56.875 85.7504 55.5625 85.7504C54.25 85.7504 53.2 84.7004 53.2 83.3879C53.2 82.0754 54.25 81.0254 55.5625 81.0254C56.875 81.0254 57.9249 82.0754 57.9249 83.3879Z" fill="white" stroke="#77BB33" stroke-width="3.6" stroke-linecap="round" stroke-linejoin="round"/>
<path d="M70.9626 83.3879C70.9626 84.7004 69.9126 85.7504 68.6001 85.7504C67.2876 85.7504 66.2375 84.7004 66.2375 83.3879C66.2375 82.0754 67.2876 81.0254 68.6001 81.0254C69.9126 81.0254 70.9626 82.0754 70.9626 83.3879Z" fill="white" stroke="#77BB33" stroke-width="3.6" stroke-linecap="round" stroke-linejoin="round"/>
<path d="M83.9125 83.3879C83.9125 84.7004 82.8625 85.7504 81.55 85.7504C80.2375 85.7504 79.1875 84.7004 79.1875 83.3879C79.1875 82.0754 80.2375 81.0254 81.55 81.0254C82.8625 81.0254 83.9125 82.0754 83.9125 83.3879Z" fill="white" stroke="#77BB33" stroke-width="3.6" stroke-linecap="round" stroke-linejoin="round"/>
<path d="M39.7251 76.125H29.6626" stroke="#77BB33" stroke-width="3.6" stroke-linecap="round" stroke-linejoin="round"/>
<path d="M48.3876 88.1133H12.6876C11.6376 88.1133 10.8501 88.9883 10.8501 89.9508C10.8501 90.9133 11.5501 91.7008 12.4251 91.7883L28.7876 94.1508H75.9501" fill="white"/>
<path d="M48.3876 88.1133H12.6876C11.6376 88.1133 10.8501 88.9883 10.8501 89.9508C10.8501 90.9133 11.5501 91.7008 12.4251 91.7883L28.7876 94.1508H75.9501" stroke="#77BB33" stroke-width="3.6" stroke-linecap="round" stroke-linejoin="round"/>
<path d="M70.7 91.9629H48.3875V100.363H70.7C72.975 100.363 74.9 98.5254 74.9 96.1629C74.9 93.8004 73.0625 91.9629 70.7 91.9629Z" fill="white" stroke="#77BB33" stroke-width="3.6" stroke-linecap="round" stroke-linejoin="round"/>
<path d="M25.9875 66.9375H15.3125C14.175 66.9375 13.3 67.8125 13.3 68.95C13.3 70.0875 14.175 70.9625 15.3125 70.9625H25.9875" fill="white"/>
<path d="M25.9875 66.9375H15.3125C14.175 66.9375 13.3 67.8125 13.3 68.95C13.3 70.0875 14.175 70.9625 15.3125 70.9625H25.9875" stroke="#77BB33" stroke-width="3.6" stroke-linecap="round" stroke-linejoin="round"/>
<path d="M59.7626 146.825C45.8501 138.688 35.0876 125.738 29.6626 110.25" stroke="#0C233C" stroke-width="3.6" stroke-linecap="round" stroke-linejoin="round"/>
<path d="M112.7 21.875C127.837 26.075 140.787 35.35 149.8 47.775" stroke="#0C233C" stroke-width="3.6" stroke-linecap="round" stroke-linejoin="round"/>
</svg>
