<svg width="56" height="54" viewBox="0 0 56 54" fill="none" xmlns="http://www.w3.org/2000/svg">
<path fill-rule="evenodd" clip-rule="evenodd" d="M14.3281 17.301C16.0739 14.4192 18.6364 12.2892 22.0154 10.911V0.0102539C19.0869 1.01262 16.3555 2.32822 13.8212 3.95706C11.287 5.5859 9.06246 7.55931 7.14768 9.87728C5.2329 12.1952 3.71234 14.8578 2.586 17.8649C1.45965 20.872 0.896484 24.1296 0.896484 27.6379V53.0103H22.0154V27.6379H11.7094C11.7094 23.6285 12.5823 20.1828 14.3281 17.301ZM47.8261 17.301C49.572 14.4192 52.1344 12.2892 55.5134 10.911V0.0102539C52.5849 1.01262 49.8536 2.32822 47.3193 3.95706C44.785 5.5859 42.5605 7.55931 40.6457 9.87728C38.7309 12.1952 37.2104 14.8578 36.084 17.8649C34.9577 20.872 34.3945 24.1296 34.3945 27.6379V53.0103H55.5134V27.6379H45.2074C45.2074 23.6285 46.0803 20.1828 47.8261 17.301Z" fill="#77BB33"/>
</svg>
