<svg width="151" height="150" viewBox="0 0 151 150" fill="none" xmlns="http://www.w3.org/2000/svg">
<path d="M109.04 27.4492H37.1147C35.0437 27.4492 33.3647 29.1282 33.3647 31.1992V116.624C33.3647 118.695 35.0437 120.374 37.1147 120.374H109.04C111.111 120.374 112.79 118.695 112.79 116.624V31.1992C112.79 29.1282 111.111 27.4492 109.04 27.4492Z" stroke="#0C233C" stroke-width="3.6" stroke-linecap="round" stroke-linejoin="round"/>
<path d="M112.79 42.5996H33.3647V51.8996H112.79V42.5996Z" stroke="#0C233C" stroke-width="3.6" stroke-linecap="round" stroke-linejoin="round"/>
<path d="M89.9146 51.9004H56.1646V86.9254H89.9146V51.9004Z" stroke="#0C233C" stroke-width="3.6" stroke-linecap="round" stroke-linejoin="round"/>
<path d="M86.7645 85.6504C85.8645 77.6254 80.0895 71.4004 73.0395 71.4004C65.9895 71.4004 60.2145 77.6254 59.3145 85.6504" stroke="#77BB33" stroke-width="3.6" stroke-linejoin="round"/>
<path d="M64.6397 64.8004C61.1897 60.6004 59.2397 53.4004 63.5897 49.1254C66.2897 46.5004 70.0397 45.9004 73.0397 48.3754C76.4147 51.0754 83.0147 48.9004 84.5147 53.1004C86.4647 58.5004 82.6397 64.8004 78.5147 67.5004" fill="white"/>
<path d="M64.6397 64.8004C61.1897 60.6004 59.2397 53.4004 63.5897 49.1254C66.2897 46.5004 70.0397 45.9004 73.0397 48.3754C76.4147 51.0754 83.0147 48.9004 84.5147 53.1004C86.4647 58.5004 82.6397 64.8004 78.5147 67.5004" stroke="#77BB33" stroke-width="3.6" stroke-linecap="round" stroke-linejoin="round"/>
<path d="M65.6897 52.7254C65.6897 52.7254 65.2397 45.6004 74.3147 45.1504L73.0397 47.2504C73.0397 47.2504 75.7397 43.6504 81.0647 46.3504C86.3897 49.0504 81.5897 57.0754 81.5897 57.0754C81.5897 57.0754 80.6897 51.4504 73.7897 52.9504" fill="white"/>
<path d="M65.6897 52.7254C65.6897 52.7254 65.2397 45.6004 74.3147 45.1504L73.0397 47.2504C73.0397 47.2504 75.7397 43.6504 81.0647 46.3504C86.3897 49.0504 81.5897 57.0754 81.5897 57.0754C81.5897 57.0754 80.6897 51.4504 73.7897 52.9504" stroke="#77BB33" stroke-width="3.6" stroke-linecap="round" stroke-linejoin="round"/>
<path d="M81.4398 66.8254C80.6898 70.2754 78.7398 73.7254 75.2148 74.8504C72.7398 75.6004 69.8148 75.0004 67.9398 73.2754C66.2898 71.7004 65.4648 69.5254 64.7898 67.2754C64.7898 67.1254 64.7898 67.0504 64.6398 66.9754C64.5648 66.9004 64.4148 66.8254 64.3398 66.7504C63.5148 66.3754 63.0648 65.4004 62.8398 64.5004C62.6898 63.9754 62.6148 63.3004 62.8398 62.8504C63.1398 62.3254 63.8148 62.0254 64.2648 62.4004C64.4898 61.5004 64.7898 60.6754 65.2398 59.8504C65.6898 59.0254 66.3648 58.4254 67.1898 58.0504C68.3148 57.6004 69.6648 57.8254 70.7898 58.2004C72.0648 58.6504 73.2648 59.2504 74.5398 59.6254C75.8148 60.0004 77.2398 60.1504 78.4398 59.6254C79.8648 59.0254 81.5148 59.9254 81.5898 61.5004C81.5898 61.7254 81.5898 62.0254 81.5898 62.2504C81.9648 61.9504 82.6398 62.1004 82.9398 62.5504C83.2398 62.9254 83.2398 63.5254 83.2398 63.9754C83.1648 64.8004 82.7148 66.8254 81.3648 66.6754L81.4398 66.8254Z" fill="white" stroke="#77BB33" stroke-width="3.6" stroke-linecap="round" stroke-linejoin="round"/>
<path d="M51.0645 34.4258H95.0145" stroke="#0C233C" stroke-width="3.6" stroke-linecap="round" stroke-linejoin="round"/>
<path d="M61.8647 92.625H84.2147" stroke="#0C233C" stroke-width="3.6" stroke-linecap="round" stroke-linejoin="round"/>
<path d="M65.5396 98.0996H80.5396" stroke="#0C233C" stroke-width="3.6" stroke-linecap="round" stroke-linejoin="round"/>
<path d="M95.9144 93.4492L100.039 99.9742L107.539 101.924L102.589 107.924L103.114 115.649L95.9144 112.799L88.6394 115.649L89.1644 107.924L84.2144 101.924L91.7144 99.9742L95.9144 93.4492Z" fill="white" stroke="#77BB33" stroke-width="3.6" stroke-linecap="round" stroke-linejoin="round"/>
<path d="M48.7046 113.984H41.4272V101.135H48.7046V102.91H43.5366V106.399H48.3794V108.166H43.5366V112.2H48.7046V113.984ZM61.5718 101.135V109.449C61.5718 110.346 61.3813 111.148 61.0005 111.857C60.6255 112.566 60.0571 113.129 59.2954 113.545C58.5337 113.955 57.5757 114.16 56.4214 114.16C54.7749 114.16 53.521 113.729 52.6597 112.868C51.8042 112.001 51.3765 110.85 51.3765 109.414V101.135H53.4858V109.229C53.4858 110.302 53.7378 111.093 54.2417 111.603C54.7456 112.112 55.4985 112.367 56.5005 112.367C57.1919 112.367 57.7544 112.247 58.188 112.007C58.6274 111.761 58.9497 111.403 59.1548 110.935C59.3657 110.46 59.4712 109.889 59.4712 109.221V101.135H61.5718Z" fill="#77BB33"/>
</svg>
