<svg width="175" height="175" viewBox="0 0 175 175" fill="none" xmlns="http://www.w3.org/2000/svg">
<path d="M99.1062 59.7427C102.733 48.7772 96.7832 36.948 85.8177 33.3215C74.8521 29.695 63.023 35.6444 59.3964 46.61C55.7699 57.5755 61.7194 69.4047 72.6849 73.0312C83.6505 76.6577 95.4797 70.7083 99.1062 59.7427Z" fill="white" stroke="#77BB33" stroke-width="3.6" stroke-linecap="round" stroke-linejoin="round"/>
<path d="M73.8501 47.7754C73.8501 44.3629 77.0001 41.7379 80.5001 42.5254C82.4251 42.9629 84.0001 44.5379 84.4376 46.4629C84.9626 48.9129 83.9126 51.1004 82.0751 52.2379C80.3251 53.2879 79.1876 55.1254 79.1876 57.1379V57.5754" stroke="#77BB33" stroke-width="2.8" stroke-linecap="round" stroke-linejoin="round"/>
<path d="M79.0127 61.95C79.0127 61.775 79.1002 61.6875 79.2752 61.6875C79.4502 61.6875 79.5377 61.775 79.5377 61.95C79.5377 62.125 79.4502 62.2125 79.2752 62.2125C79.1002 62.2125 79.0127 62.125 79.0127 61.95Z" stroke="#77BB33" stroke-width="2.8" stroke-linecap="round" stroke-linejoin="round"/>
<path d="M120.663 79.4504L124.338 45.1504H147.788" stroke="#0C233C" stroke-width="3.6" stroke-linecap="round" stroke-linejoin="round"/>
<path d="M108.762 128.713H53.2875C49.7 128.713 46.6375 126.001 46.2875 122.413L41.3875 77.6133H120.662L115.762 122.413C115.412 126.001 112.35 128.713 108.762 128.713Z" stroke="#0C233C" stroke-width="3.6" stroke-linecap="round" stroke-linejoin="round"/>
<path d="M123.113 69.4746H38.85C36.575 69.4746 34.7375 71.3121 34.7375 73.5871C34.7375 75.8621 36.575 77.6996 38.85 77.6996H123.113C125.388 77.6996 127.225 75.8621 127.225 73.5871C127.225 71.3121 125.388 69.4746 123.113 69.4746Z" fill="white" stroke="#0C233C" stroke-width="3.6" stroke-linecap="round" stroke-linejoin="round"/>
<path d="M147.787 41.0371H134.137C131.862 41.0371 130.025 42.8746 130.025 45.1496C130.025 47.4246 131.862 49.2621 134.137 49.2621H147.787C150.062 49.2621 151.9 47.4246 151.9 45.1496C151.9 42.8746 150.062 41.0371 147.787 41.0371Z" fill="white" stroke="#0C233C" stroke-width="3.6" stroke-linecap="round" stroke-linejoin="round"/>
<path d="M50.2251 89.7754H111.825" stroke="#0C233C" stroke-width="3.6" stroke-linecap="round" stroke-linejoin="round"/>
<path d="M64.3125 103.25H110.775" stroke="#0C233C" stroke-width="3.6" stroke-linecap="round" stroke-linejoin="round"/>
<path d="M51.1875 103.25H58.7125" stroke="#0C233C" stroke-width="3.6" stroke-linecap="round" stroke-linejoin="round"/>
<path d="M52.675 116.637H109.375" stroke="#0C233C" stroke-width="3.6" stroke-linecap="round" stroke-linejoin="round"/>
<path d="M47.6 38.4988L39.8125 30.7988" stroke="#77BB33" stroke-width="3.6" stroke-linecap="round" stroke-linejoin="round"/>
<path d="M66.9376 26.5992L62.9126 14.2617" stroke="#77BB33" stroke-width="3.6" stroke-linecap="round" stroke-linejoin="round"/>
<path d="M110.25 38.4988L118.037 30.7988" stroke="#77BB33" stroke-width="3.6" stroke-linecap="round" stroke-linejoin="round"/>
<path d="M90.9126 26.5992L94.9376 14.2617" stroke="#77BB33" stroke-width="3.6" stroke-linecap="round" stroke-linejoin="round"/>
<path d="M64.5563 147.973C65.6791 143.224 62.7388 138.463 57.9889 137.34C53.239 136.217 48.4782 139.157 47.3553 143.907C46.2325 148.657 49.1728 153.418 53.9227 154.541C58.6726 155.664 63.4334 152.723 64.5563 147.973Z" stroke="#0C233C" stroke-width="3.6" stroke-linecap="round" stroke-linejoin="round"/>
<path d="M58.7126 145.951C58.7126 147.438 57.4876 148.663 56.0001 148.663C54.5126 148.663 53.2876 147.438 53.2876 145.951C53.2876 144.463 54.5126 143.238 56.0001 143.238C57.4876 143.238 58.7126 144.463 58.7126 145.951Z" stroke="#0C233C" stroke-width="3.6" stroke-linecap="round" stroke-linejoin="round"/>
<path d="M115.654 152.161C119.105 148.71 119.105 143.114 115.654 139.663C112.202 136.212 106.607 136.212 103.156 139.663C99.7043 143.114 99.7043 148.71 103.156 152.161C106.607 155.612 112.202 155.612 115.654 152.161Z" stroke="#0C233C" stroke-width="3.6" stroke-linecap="round" stroke-linejoin="round"/>
<path d="M112.088 145.949C112.088 147.436 110.863 148.661 109.375 148.661C107.888 148.661 106.663 147.436 106.663 145.949C106.663 144.461 107.888 143.236 109.375 143.236C110.863 143.236 112.088 144.461 112.088 145.949Z" stroke="#0C233C" stroke-width="3.6" stroke-linecap="round" stroke-linejoin="round"/>
<path d="M56 154.787H134.75" stroke="#0C233C" stroke-width="3.6" stroke-linecap="round" stroke-linejoin="round"/>
<path d="M102.988 161.262H130.113" stroke="#0C233C" stroke-width="3.6" stroke-linecap="round" stroke-linejoin="round"/>
</svg>
