<svg xmlns="http://www.w3.org/2000/svg">
	<defs>
		<symbol id="icon-search" viewBox="0 0 20 20">
			<g fill-rule="evenodd">
				<g>
					<path fill-rule="evenodd" clip-rule="evenodd" d="M13.1737 12.375H14.0625L19.6763 18L18 19.6763L12.375 14.0625V13.1737L12.0712 12.8588C10.7887 13.9613 9.12375 14.625 7.3125 14.625C3.27375 14.625 0 11.3512 0 7.3125C0 3.27375 3.27375 0 7.3125 0C11.3512 0 14.625 3.27375 14.625 7.3125C14.625 9.12375 13.9613 10.7887 12.8588 12.0712L13.1737 12.375ZM2.25 7.3125C2.25 10.1138 4.51125 12.375 7.3125 12.375C10.1138 12.375 12.375 10.1138 12.375 7.3125C12.375 4.51125 10.1138 2.25 7.3125 2.25C4.51125 2.25 2.25 4.51125 2.25 7.3125Z"/>
				</g>
			</g>
		</symbol>
		<symbol id="icon-close" viewBox="0 0 20 20">
			<g fill-rule="evenodd">
				<g>
					<path fill-rule="evenodd" clip-rule="evenodd" d="M17.7101 1.86734C18.4912 2.64839 18.4912 3.91472 17.7101 4.69577L4.27508 18.1308C3.49403 18.9118 2.2277 18.9118 1.44665 18.1308C0.665606 17.3497 0.665607 16.0834 1.44666 15.3024L14.8817 1.86734C15.6627 1.08629 16.9291 1.08629 17.7101 1.86734Z"/>
					<path fill-rule="evenodd" clip-rule="evenodd" d="M18.0018 17.84C17.2208 18.621 15.9544 18.621 15.1734 17.84L1.73835 4.40496C0.9573 3.62392 0.957299 2.35759 1.73835 1.57654C2.5194 0.795489 3.78573 0.79549 4.56677 1.57654L18.0018 15.0116C18.7829 15.7926 18.7829 17.0589 18.0018 17.84Z"/>
				</g>
			</g>
		</symbol>
		<symbol id="icon-check" viewBox="0 0 21 17">
			<g fill-rule="evenodd">
				<g>
					<path fill-rule="evenodd" clip-rule="evenodd" d="M19.9235 1.07755C20.6994 1.86372 20.691 3.13002 19.9049 3.90591L7.31928 16.3269L1.09513 10.1842C0.308954 9.40826 0.300618 8.14196 1.07651 7.35579C1.8524 6.56962 3.1187 6.56128 3.90487 7.33717L7.31928 10.7069L17.0951 1.05893C17.8813 0.28304 19.1476 0.291375 19.9235 1.07755Z"/>
				</g>
			</g>
		</symbol>
		<symbol id="icon-arrow" viewBox="0 0 15 11">
			<g fill-rule="evenodd">
				<g>
					<path d="M7.84352 10.9998L11.4635 6.87984H0.863525V4.95984H11.4635L7.84352 0.839844H10.1435L14.3435 5.91984L10.1435 10.9998H7.84352Z"/>
				</g>
			</g>
		</symbol>
		<symbol id="icon-phone" viewBox="0 0 24 24">
			<g fill-rule="evenodd">
				<g>
					<path d="M21.9375 23.25C19.3333 23.25 16.7604 22.6823 14.2188 21.5469C11.6771 20.4115 9.36458 18.8021 7.28125 16.7188C5.19792 14.6354 3.58854 12.3229 2.45312 9.78125C1.31771 7.23958 0.75 4.66667 0.75 2.0625C0.75 1.6875 0.875 1.375 1.125 1.125C1.375 0.875 1.6875 0.75 2.0625 0.75H7.125C7.41667 0.75 7.67708 0.848958 7.90625 1.04688C8.13542 1.24479 8.27083 1.47917 8.3125 1.75L9.125 6.125C9.16667 6.45833 9.15625 6.73958 9.09375 6.96875C9.03125 7.19792 8.91667 7.39583 8.75 7.5625L5.71875 10.625C6.13542 11.3958 6.63021 12.1406 7.20312 12.8594C7.77604 13.5781 8.40625 14.2708 9.09375 14.9375C9.73958 15.5833 10.4167 16.1823 11.125 16.7344C11.8333 17.2865 12.5833 17.7917 13.375 18.25L16.3125 15.3125C16.5 15.125 16.7448 14.9844 17.0469 14.8906C17.349 14.7969 17.6458 14.7708 17.9375 14.8125L22.25 15.6875C22.5417 15.7708 22.7812 15.9219 22.9688 16.1406C23.1562 16.3594 23.25 16.6042 23.25 16.875V21.9375C23.25 22.3125 23.125 22.625 22.875 22.875C22.625 23.125 22.3125 23.25 21.9375 23.25ZM4.53125 8.25L6.59375 6.1875L6.0625 3.25H3.28125C3.38542 4.10417 3.53125 4.94792 3.71875 5.78125C3.90625 6.61458 4.17708 7.4375 4.53125 8.25ZM15.7188 19.4375C16.5312 19.7917 17.3594 20.0729 18.2031 20.2812C19.0469 20.4896 19.8958 20.625 20.75 20.6875V17.9375L17.8125 17.3438L15.7188 19.4375Z"/>
				</g>
			</g>
		</symbol>
		<symbol id="icon-pin" viewBox="0 0 56 83">
			<g fill-rule="evenodd">
				<g>
					<path d="M27.8659 0.0175781C12.4793 0.0175781 0 12.3343 0 27.5458C0 42.7572 20.9023 75.0078 27.8659 82.6022C34.8295 75.0078 55.7318 42.7459 55.7318 27.5458C55.7318 12.3457 43.2524 0.0175781 27.8659 0.0175781ZM27.8659 41.3042C20.1669 41.3042 13.9387 35.1402 13.9387 27.5458C13.9387 19.9514 20.1783 13.7874 27.8659 13.7874C35.5534 13.7874 41.7931 19.9514 41.7931 27.5458C41.7931 35.1402 35.5534 41.3042 27.8659 41.3042Z"/>
				</g>
			</g>
		</symbol>
		<symbol id="icon-facebook" viewBox="0 0 30 29">
			<g fill-rule="evenodd">
				<g>
					<path d="M15 0C6.74999 0 0 6.53665 0 14.5874C0 21.8665 5.48999 27.9081 12.66 29V18.8092H8.84999V14.5874H12.66V11.37C12.66 7.71586 14.895 5.70683 18.33 5.70683C19.965 5.70683 21.675 5.98343 21.675 5.98343V9.57932H19.785C17.925 9.57932 17.34 10.7003 17.34 11.8504V14.5874H21.51L20.835 18.8092H17.34V29C20.8746 28.4582 24.0933 26.7078 26.4149 24.0648C28.7364 21.4219 30.008 18.0604 30 14.5874C30 6.53665 23.25 0 15 0Z"/>
				</g>
			</g>
		</symbol>
		<symbol id="icon-youtube" viewBox="0 0 30 21">
			<g fill-rule="evenodd">
				<g>
					<path d="M12 15L19.785 10.5L12 6V15ZM29.34 3.255C29.535 3.96 29.67 4.905 29.76 6.105C29.865 7.305 29.91 8.34 29.91 9.24L30 10.5C30 13.785 29.76 16.2 29.34 17.745C28.965 19.095 28.095 19.965 26.745 20.34C26.04 20.535 24.75 20.67 22.77 20.76C20.82 20.865 19.035 20.91 17.385 20.91L15 21C8.715 21 4.8 20.76 3.255 20.34C1.905 19.965 1.035 19.095 0.66 17.745C0.465 17.04 0.33 16.095 0.24 14.895C0.135 13.695 0.0899999 12.66 0.0899999 11.76L0 10.5C0 7.215 0.24 4.8 0.66 3.255C1.035 1.905 1.905 1.035 3.255 0.66C3.96 0.465 5.25 0.33 7.23 0.24C9.18 0.135 10.965 0.0899999 12.615 0.0899999L15 0C21.285 0 25.2 0.24 26.745 0.66C28.095 1.035 28.965 1.905 29.34 3.255Z"/>
				</g>
			</g>
		</symbol>
		<symbol id="icon-pinterest" viewBox="0 0 28 28">
			<g fill-rule="evenodd">
				<g>
					<path d="M26.1261 1.87387C24.973 0.720721 23.3874 0 21.6216 0H13.982H6.37838C4.61261 0 3.02703 0.720721 1.87387 1.87387C0.720721 3.02703 0 4.61261 0 6.34234V13.982V21.6216C0 23.3874 0.720721 24.973 1.87387 26.1261C3.02703 27.2793 4.61261 28 6.37838 28H13.982H21.6216C23.3874 28 24.973 27.2793 26.1261 26.1261C27.2793 24.973 28 23.3874 28 21.6216V13.982V6.34234C28 4.61261 27.2793 3.02703 26.1261 1.87387ZM15.5676 20.3604C14.2342 20.3604 12.973 19.6757 12.5766 18.8468C12.5766 18.8468 11.9279 21.3694 11.7477 21.982C11.4595 23.1351 10.3784 25.009 10.1261 25.4414C9.94595 25.7297 9.33333 25.5135 9.26126 25.1171C9.15315 24.3964 9.04505 22.4865 9.2973 21.3333C9.54955 20.2883 10.8468 14.8108 10.8468 14.8108C10.8468 14.8108 10.4505 14.018 10.4505 12.8649C10.4505 11.027 11.4955 9.65766 12.8288 9.65766C13.9459 9.65766 14.4865 10.4865 14.4865 11.4955C14.4865 12.6126 13.7658 14.3063 13.4054 15.8919C13.0811 17.1892 14.0541 18.2703 15.3514 18.2703C17.6937 18.2703 19.4955 15.8198 19.4955 12.2523C19.4955 9.11712 17.2252 6.91892 13.982 6.91892C10.2342 6.91892 8.03604 9.72973 8.03604 12.6126C8.03604 13.7297 8.46847 14.955 9.00901 15.6036C9.11712 15.7477 9.11712 15.8559 9.08108 15.964C8.97297 16.3604 8.75676 17.2613 8.72072 17.4414C8.64865 17.6937 8.54054 17.7297 8.28829 17.6216C6.63063 16.8649 5.62162 14.4505 5.62162 12.5405C5.62162 8.3964 8.61261 4.57658 14.3063 4.57658C18.8468 4.57658 22.4144 7.81982 22.4144 12.1802C22.3784 16.7207 19.5315 20.3604 15.5676 20.3604Z"/>
				</g>
			</g>
		</symbol>
		<symbol id="icon-star" viewBox="0 0 50 48">
			<g fill-rule="evenodd">
				<g>
					<path d="M24.7275 0.0800781L30.5648 18.0456H49.4549L34.1725 29.149L40.0099 47.1145L24.7275 36.0112L9.44505 47.1145L15.2824 29.149L0 18.0456H18.8901L24.7275 0.0800781Z"/>
				</g>
			</g>
		</symbol>
		<symbol id="icon-instagram" viewBox="0 0 28 28">
			<g fill-rule="evenodd">
				<g>
					<path d="M18.48 14C18.48 14.8861 18.2173 15.7522 17.725 16.489C17.2327 17.2257 16.533 17.7999 15.7144 18.139C14.8958 18.4781 13.995 18.5668 13.126 18.3939C12.257 18.2211 11.4587 17.7944 10.8322 17.1678C10.2056 16.5413 9.77894 15.743 9.60608 14.874C9.43322 14.005 9.52194 13.1042 9.86102 12.2856C10.2001 11.467 10.7743 10.7673 11.511 10.275C12.2478 9.78275 13.1139 9.52 14 9.52C15.187 9.52369 16.3244 9.99688 17.1638 10.8362C18.0031 11.6756 18.4763 12.813 18.48 14ZM28 7.84V20.16C28 22.2393 27.174 24.2334 25.7037 25.7037C24.2334 27.174 22.2393 28 20.16 28H7.84C5.7607 28 3.76657 27.174 2.29628 25.7037C0.825998 24.2334 0 22.2393 0 20.16V7.84C0 5.7607 0.825998 3.76657 2.29628 2.29628C3.76657 0.825998 5.7607 0 7.84 0H20.16C22.2393 0 24.2334 0.825998 25.7037 2.29628C27.174 3.76657 28 5.7607 28 7.84ZM20.72 14C20.72 12.6709 20.3259 11.3717 19.5875 10.2666C18.8491 9.16147 17.7996 8.30015 16.5716 7.79153C15.3437 7.28291 13.9925 7.14983 12.689 7.40912C11.3854 7.66842 10.1881 8.30843 9.24824 9.24824C8.30843 10.1881 7.66842 11.3854 7.40912 12.689C7.14983 13.9925 7.28291 15.3437 7.79153 16.5716C8.30015 17.7996 9.16147 18.8491 10.2666 19.5875C11.3717 20.3259 12.6709 20.72 14 20.72C15.7823 20.72 17.4915 20.012 18.7518 18.7518C20.012 17.4915 20.72 15.7823 20.72 14ZM22.96 6.72C22.96 6.38773 22.8615 6.06292 22.6769 5.78664C22.4923 5.51037 22.2299 5.29504 21.9229 5.16788C21.6159 5.04073 21.2781 5.00746 20.9522 5.07228C20.6264 5.1371 20.327 5.29711 20.0921 5.53206C19.8571 5.76701 19.6971 6.06636 19.6323 6.39225C19.5675 6.71814 19.6007 7.05593 19.7279 7.36291C19.855 7.66989 20.0704 7.93227 20.3466 8.11687C20.6229 8.30147 20.9477 8.4 21.28 8.4C21.7256 8.4 22.1529 8.223 22.4679 7.90794C22.783 7.59288 22.96 7.16556 22.96 6.72Z"/>
				</g>
			</g>
		</symbol>
		<symbol id="icon-x" viewBox="0 0 25 25">
			<g fill-rule="evenodd">
				<g>
					<path d="M14.8808 10.587L24.1892 0H21.9842L13.8983 9.19064L7.445 0H0L9.76083 13.8992L0 24.9999H2.205L10.7383 15.2922L17.555 24.9999H25M3.00083 1.62697H6.38833L21.9825 23.4529H18.5942"/>
				</g>
			</g>
		</symbol>
	</defs>
</svg>
