<svg width="264" height="22" viewBox="0 0 264 22" fill="none" xmlns="http://www.w3.org/2000/svg">
<mask id="mask0_871_2281" style="mask-type:luminance" maskUnits="userSpaceOnUse" x="0" y="0" width="264" height="22">
<path d="M263.5 0.5H0.5V21.5H263.5V0.5Z" fill="white"/>
</mask>
<g mask="url(#mask0_871_2281)">
<path d="M262.098 18.6157C261.332 18.6157 260.694 19.2169 260.694 20.028C260.694 20.8391 261.332 21.4402 262.098 21.4402C262.862 21.4402 263.5 20.8391 263.5 20.028C263.5 19.2169 262.862 18.6157 262.098 18.6157ZM211.34 21.3496H217.779V20.8091L217.079 20.6588C216.441 20.5084 216.154 20.1781 216.154 19.3364V11.1653H217.652C218.577 11.1653 219.056 11.3756 219.119 13.2084L219.279 17.0537C219.406 20.5084 220.458 21.47 222.244 21.47C224.061 21.47 224.539 20.2982 224.539 18.646V17.9548H223.87V18.4654C223.87 19.5773 223.711 20.3584 223.264 20.3584C222.85 20.3584 222.818 20.0581 222.721 18.6759L222.532 16.0325C222.276 12.4872 221.798 11.2555 219.024 10.7744C221.669 10.1139 223.296 8.28101 223.296 5.66714C223.296 2.27225 220.458 0.649981 217.749 0.649981H206.877V1.19086L207.483 1.31092C208.629 1.55144 208.661 2.12225 208.661 4.55584V16.5128C208.661 19.1869 207.865 20.4785 206.047 20.4785C204.421 20.4785 203.528 19.7273 203.528 16.8131V2.6029C203.528 1.76166 203.816 1.52153 204.516 1.37116L205.377 1.19086V0.649981H198.715V1.19086L199.415 1.37116C200.053 1.55145 200.276 1.79197 200.276 2.63282V16.603C200.276 19.7573 202.221 21.5 205.187 21.5C208.152 21.5 209.619 19.7573 209.619 16.5128V3.47408C209.619 1.85182 209.969 1.281 211.371 1.281C212.487 1.281 212.966 1.64159 212.966 2.63282V19.3364C212.966 20.1781 212.68 20.4785 212.041 20.6288L211.34 20.8091V21.3496ZM254.127 2.63282C254.127 1.79197 254.414 1.52154 255.05 1.40108L255.911 1.22078V0.649981H249.28V1.19086L249.981 1.37116C250.619 1.55145 250.907 1.79197 250.907 2.63282V19.4573C250.907 20.2682 250.556 20.7189 249.567 20.7189C248.419 20.7189 248.26 20.3583 247.845 18.5861L243.764 0.59014H242.489L238.601 18.0149C238.153 19.9675 237.929 20.4186 237.069 20.6588L236.527 20.8091V21.3496H241.087V20.8091L240.417 20.6887C239.46 20.5084 239.206 20.028 239.683 17.7444L241.98 6.59852L244.498 18.4055C244.881 20.1179 244.848 20.4485 243.477 20.6887L242.809 20.8091V21.3496H259.706V14.5H259.101C258.781 17.6543 258.112 20.6288 255.402 20.6288H254.127V2.63282ZM244.179 15.7616V14.9507H239.874L239.747 15.7616H244.179ZM226.388 2.99342V17.354C226.388 19.5172 226.388 20.5386 225.241 20.7189L224.668 20.8091V21.3496H229.353V20.8091C227.313 20.5387 227.313 19.8778 227.313 17.5343V3.89488L226.549 3.23395L234.359 21.3496H235.698V4.64598C235.698 2.18247 235.698 1.64159 236.974 1.31092L237.42 1.19086V0.649981H232.605V1.19086L233.148 1.31092C234.773 1.58136 234.773 2.18249 234.773 4.4657V14.9204L235.093 14.8303L229.163 0.649981H224.604V1.19086L225.05 1.31092C225.561 1.4613 225.847 2.00219 226.388 2.99342ZM216.154 1.37116H217.429C218.704 1.37116 219.885 2.15217 219.885 6.05804C219.885 10.0536 218.992 10.4442 217.206 10.4442H216.154V1.37116ZM194.921 10.8047C194.921 19.4869 194.155 20.7189 192.498 20.7189C190.84 20.7189 190.106 19.4869 190.106 10.8646C190.106 2.51276 190.903 1.31092 192.498 1.31092C194.155 1.31092 194.921 2.51276 194.921 10.8047ZM198.397 10.985C198.397 5.2467 196.45 0.5 192.498 0.5C188.513 0.5 186.631 5.2467 186.631 10.985C186.631 16.7533 188.576 21.5 192.498 21.5C196.547 21.5 198.397 16.7533 198.397 10.985ZM184.75 2.63282C184.75 1.79197 184.973 1.52153 185.611 1.37116L186.313 1.19086V0.649981H179.713V1.19086L180.51 1.37116C181.147 1.52153 181.498 1.73174 181.498 2.6029V17.0537C181.498 19.0664 181.306 20.6887 179.713 20.6887C178.692 20.6887 177.927 19.9376 177.959 19.397C178.054 18.4653 179.713 18.5259 179.84 17.0234C179.936 15.9419 179.202 15.4912 178.533 15.4015C177.545 15.281 176.334 16.062 176.3 17.6245C176.268 19.6371 177.672 21.47 180.063 21.47C182.71 21.47 184.75 19.7876 184.75 16.5727V2.63282ZM78.2618 2.63282C78.2618 1.79197 78.5486 1.52154 79.1862 1.40108L80.0473 1.22078V0.649981H73.4157V1.19086L74.1171 1.37116C74.7545 1.55145 75.0415 1.79197 75.0415 2.63282V19.4573C75.0415 20.2682 74.6906 20.7189 73.7022 20.7189C72.5547 20.7189 72.3634 20.3583 71.9488 18.5861L67.8678 0.59014H66.5928L62.703 18.0149C62.2568 19.9675 62.0333 20.4186 61.1727 20.6588L60.6305 20.8091V21.3496H65.1899V20.8091L64.5203 20.6887C63.564 20.5084 63.3087 20.028 63.7871 17.7444L66.0827 6.53829L68.6014 18.4055C68.9519 20.1179 68.9519 20.4485 67.5812 20.6887L66.9115 20.8091V21.3496H83.8413V14.5H83.2355C82.9169 17.6543 82.2471 20.6288 79.5372 20.6288H78.2618V2.63282ZM167.023 1.37116H167.725C169.702 1.37116 170.37 4.34523 170.594 7.49999H171.199V0.649981H159.626V7.49999H160.231C160.456 4.34523 161.126 1.37116 163.101 1.37116H163.803V19.3364C163.803 20.1781 163.516 20.4785 162.878 20.6288L162.049 20.8091V21.3496H168.936V20.8091L167.947 20.5989C167.341 20.4485 167.023 20.2682 167.023 19.3364V1.37116ZM152.453 10.9547L153.441 10.985C154.876 11.015 155.289 11.5259 155.578 14.8007H156.182V6.44853H155.578C155.227 9.06242 154.844 10.1737 153.473 10.204L152.453 10.2339V1.37118H154.653C157.107 1.37118 157.65 4.28541 158 7.50002H158.606V0.65H147.607V1.19088L148.308 1.37118C149.041 1.55147 149.233 1.97229 149.233 2.66316V19.3364C149.233 20.1781 148.946 20.4785 148.308 20.6288L147.607 20.8091V21.3497H158.925V14.5H158.318C157.936 17.6244 157.522 20.6288 154.653 20.6288H152.453V10.9547ZM140.433 10.9547L141.421 10.985C142.856 11.015 143.27 11.5259 143.557 14.8007H144.163V6.44853H143.557C143.207 9.06242 142.824 10.1737 141.453 10.204L140.433 10.2339V1.37118H142.633C145.088 1.37118 145.63 4.34525 145.98 7.50002H146.586V0.65H135.268V1.19088L136.288 1.37118C137.021 1.55147 137.213 1.97229 137.213 2.66316V19.3364C137.213 20.1781 136.926 20.4785 136.288 20.6288L135.587 20.8091V21.3497H146.905V14.5H146.3C145.917 17.6244 145.502 20.6288 142.633 20.6288H140.433V10.9547ZM127.329 1.37116H128.286C129.561 1.37116 130.741 2.15217 130.741 6.05804C130.741 9.99343 129.848 10.4442 128.063 10.4442H127.329V1.37116ZM122.515 21.3496H128.955V20.8091L128.253 20.6588C127.616 20.5084 127.329 20.1781 127.329 19.3364V11.1653H128.509C129.433 11.1653 129.912 11.5259 129.976 13.2084L130.135 17.0537C130.263 20.5084 131.315 21.47 133.1 21.47C134.917 21.47 135.395 20.2982 135.395 18.646V17.9548H134.726V18.4654C134.726 19.5773 134.567 20.3584 134.12 20.3584C133.706 20.3584 133.674 20.0581 133.578 18.6759L133.387 16.0325C133.132 12.3971 132.622 11.2555 129.88 10.7744C132.526 10.1139 134.152 8.28101 134.152 5.66714C134.152 2.27225 131.315 0.649981 128.604 0.649981H122.515V1.19086L123.216 1.37116C123.854 1.55145 124.141 1.79197 124.141 2.63282V19.3364C124.141 20.1781 123.854 20.4785 123.216 20.6288L122.515 20.8091V21.3496ZM117.637 1.37116H118.338C120.315 1.37116 120.984 4.34523 121.208 7.49999H121.813V0.649981H110.24V7.49999H110.846C111.069 4.34523 111.739 1.37116 113.715 1.37116H114.417V19.3364C114.417 20.1781 114.129 20.4785 113.492 20.6288L112.663 20.8091V21.3496H119.39V20.8091L118.561 20.6288C117.733 20.4485 117.637 19.8477 117.637 19.3364V1.37116ZM110.272 15.9719C110.272 9.81311 103.098 8.19088 103.098 3.7146C103.098 2.75328 103.481 1.31092 105.075 1.31092C107.371 1.31092 108.232 4.1051 108.614 7.49999H109.22V0.649981H108.837C108.678 1.31093 108.391 1.61168 107.977 1.61168C107.243 1.61168 106.86 0.52992 105.107 0.52992C102.397 0.52992 100.548 2.66314 100.548 5.45691C100.548 10.5343 107.721 12.6671 107.721 17.354C107.721 19.4869 106.669 20.6887 105.234 20.6887C103.098 20.6887 101.696 18.3157 101.313 14.5H100.707V21.3496H101.09C101.409 20.3584 101.823 20.2682 102.174 20.2682C102.78 20.2682 103.417 21.47 105.266 21.47C108.104 21.47 110.272 19.157 110.272 15.9719ZM89.3888 2.63282C89.3888 1.79197 89.6758 1.52154 90.3133 1.40108L91.1743 1.22078V0.649981H84.5427V1.19086L85.2441 1.37116C85.8817 1.55145 86.1686 1.79197 86.1686 2.63282V19.3364C86.1686 20.1781 85.8817 20.4785 85.2441 20.6288L84.5427 20.8091V21.3496H94.9684V14.5H94.3623C94.0439 17.6543 93.3742 20.6288 90.6642 20.6288H89.3888V2.63282ZM68.2821 15.7616V14.9507H63.9784L63.8506 15.7616H68.2821ZM49.8544 21.4099H51.1614L54.1263 6.62883H53.6801L56.932 21.4099H58.08L61.9698 3.98504C62.3842 2.15217 62.6073 1.52152 63.3726 1.34084L63.9784 1.19086V0.649981H59.483V1.19086L60.1525 1.31092C61.1088 1.49121 61.3319 2.0321 60.8857 4.25508L58.367 15.9419H58.7498L56.1988 3.62444C55.9436 2.45252 55.7844 1.49121 56.8367 1.31092L57.5378 1.19086V0.649981H51.3845V1.19086L51.7991 1.281C52.437 1.43099 52.5326 1.79197 52.7875 2.93359L53.7758 7.40984L53.5846 4.70582L51.3845 15.6416H51.6715L49.0889 3.62444C48.8019 2.39268 48.7064 1.46129 49.7266 1.281L50.2053 1.19086V0.649981H43.9242V1.19086L44.53 1.34084C45.1036 1.49122 45.4227 1.76166 45.8054 3.41384L49.8544 21.4099ZM32.8288 10.9547L33.8174 10.985C35.2519 11.015 35.6663 11.5259 35.9533 14.8007H36.5591V6.44853H35.9533C35.6029 9.06242 35.2201 10.1737 33.849 10.204L32.8288 10.2339V1.37118H35.0288C37.4836 1.37118 38.0258 4.34525 38.3763 7.50002H38.9821V0.65H27.9829V1.19088L28.6843 1.37118C29.4175 1.55147 29.6087 1.97229 29.6087 2.66316V19.3364C29.6087 20.1781 29.3217 20.4785 28.6843 20.6288L27.9829 20.8091V21.3497H39.3012V14.5H38.6951C38.3128 17.6244 37.8984 20.6288 35.0288 20.6288H32.8288V10.9547ZM12.7747 21.3496H19.3106V20.8091L18.5774 20.6588C18.0034 20.5387 17.6207 20.1781 17.6207 19.3364V11.1354H22.435V19.3364C22.435 20.1781 22.0527 20.5387 21.4787 20.6588L20.7455 20.8091V21.3496H27.2813V20.8091L26.58 20.6288C25.9425 20.4785 25.655 20.1478 25.655 19.307V2.63282C25.655 1.79197 25.9425 1.52153 26.58 1.37116L27.2813 1.19086V0.649981H20.7455V1.19086L21.4787 1.37116C22.0206 1.52153 22.435 1.73174 22.435 2.6029V10.3241H17.6207V2.6029C17.6207 1.76166 17.9716 1.52153 18.5774 1.37116L19.3106 1.19086V0.649981H12.7747V1.19086L13.4761 1.37116C14.114 1.55145 14.4006 1.79197 14.4006 2.63282V19.3364C14.4006 20.1781 14.114 20.4785 13.4761 20.6288L12.7747 20.8091V21.3496ZM7.89648 1.37116H8.5983C10.5747 1.37116 11.2444 4.34523 11.4675 7.49999H12.0733V0.649981H0.5V7.49999H1.10575C1.32884 4.34523 1.99851 1.37116 3.97495 1.37116H4.67636V19.3364C4.67636 20.1781 4.38977 20.4785 3.75186 20.6288L2.92301 20.8091V21.3496H9.80982V20.8091L8.8214 20.5989C8.21564 20.4485 7.89648 20.2682 7.89648 19.3364V1.37116Z" fill="#2A2A2A"/>
</g>
</svg>
