<svg width="225" height="32" viewBox="0 0 225 32" fill="none" xmlns="http://www.w3.org/2000/svg">
<g clip-path="url(#clip0_871_2286)">
<mask id="mask0_871_2286" style="mask-type:luminance" maskUnits="userSpaceOnUse" x="0" y="0" width="225" height="32">
<path d="M224.5 0H0.5V32H224.5V0Z" fill="white"/>
</mask>
<g mask="url(#mask0_871_2286)">
<path d="M17.2092 3.71172C17.2092 1.15172 14.9086 0.511719 13.0924 0.511719V0.895719C14.1822 0.895719 15.0297 1.27972 15.0297 2.17572C15.0297 2.68772 14.6665 3.45572 13.5768 3.45572C12.7292 3.45572 10.913 2.94372 9.58108 2.43172C8.00702 1.79172 6.55406 1.27972 5.34325 1.27972C2.92162 1.27972 1.22649 3.19972 1.22649 5.37572C1.22649 7.29572 2.55838 7.93572 3.04271 8.19172L3.16379 7.93572C2.92162 7.67972 2.55838 7.42372 2.55838 6.65572C2.55838 6.14372 3.04271 5.24772 4.25352 5.24772C5.34325 5.24772 6.79621 5.75972 8.73352 6.39972C10.4286 6.91172 12.2449 7.29572 13.2135 7.42372V11.3917L11.3973 13.0557V13.1837L13.2135 14.8477V20.3517C12.2449 20.9917 11.1551 21.1197 10.1865 21.1197C8.37027 21.1197 6.79621 20.6077 5.46433 19.0717L10.4286 16.5117V7.67972L4.3746 10.4957C4.85892 8.83172 6.19081 7.67972 7.52271 6.91172L7.40162 6.52772C3.76919 7.55172 0.5 11.1357 0.5 15.4877C0.5 20.6077 4.49567 24.4477 8.97567 24.4477C13.8189 24.4477 16.9671 20.3517 16.9671 16.1277H16.7248C15.9983 17.7917 14.9086 19.3277 13.5768 20.0957V14.8477L15.5141 13.1837V13.0557L13.5768 11.3917V7.42372C15.393 7.42372 17.2092 6.14372 17.2092 3.71172ZM6.67513 17.7917L5.22217 18.5597C4.3746 17.4077 3.89027 15.8717 3.89027 13.6957C3.89027 12.7997 3.89027 11.7757 4.13244 11.0077L6.67513 9.85572V17.7917ZM19.5098 20.7357L17.9356 22.0157L18.1779 22.2717L18.9044 21.6317L21.5681 24.1917L25.2006 21.6317L25.0794 21.3757L24.1108 22.0157L22.9 20.7357V12.0317L23.8687 11.2637L25.9271 13.0557V20.8637C25.9271 25.7277 24.9583 26.4957 22.9 27.2637V27.6477C26.2902 27.7757 29.4383 26.6237 29.4383 20.3517V11.9037L30.5281 11.0077L30.286 10.7517L29.3173 11.5197L26.2902 8.83172L22.9 11.5197V1.02372H22.6579L18.42 4.09572V4.35172C18.9044 4.60772 19.6308 4.86372 19.6308 6.27172L19.5098 20.7357ZM41.6675 19.3277L38.6406 21.7597L35.6135 19.1997V17.6637L41.3044 13.5677V13.4397L38.3983 8.83172L32.1021 12.4157V20.8637L30.8913 21.8877L31.1335 22.1437L32.2233 21.2477L36.34 24.4477L41.7886 19.8397L41.6675 19.3277ZM35.6135 17.1517V10.8797L35.8556 10.7517L38.5194 15.2317L35.6135 17.1517ZM64.794 2.55972C64.794 2.17572 64.6729 1.79172 64.5519 1.40772H64.3098C63.9465 2.43172 63.4621 2.94372 62.2513 2.94372C61.1616 2.94372 60.4352 2.30372 59.9508 1.79172L56.4394 6.01572L56.6817 6.27172L57.8925 5.11972C58.6189 5.75972 59.2244 6.27172 60.9194 6.39972V17.0237L53.7756 4.09572C53.1702 3.07172 52.3227 1.66372 50.6275 1.66372C48.6902 1.66372 46.9952 3.45572 47.2373 6.27172H47.6006C47.7216 5.50372 48.0848 4.60772 48.9325 4.60772C49.5379 4.60772 50.1433 5.24772 50.5065 5.88772V10.1117C48.3271 10.1117 46.874 11.1357 46.874 13.0557C46.874 14.0797 47.3583 15.6157 48.8113 15.9997V15.7437C48.5692 15.4877 48.4481 15.2317 48.4481 14.8477C48.4481 14.2077 48.9325 13.6957 49.78 13.6957H50.3854V19.0717C47.8427 19.0717 45.7844 20.6077 45.7844 23.1677C45.7844 25.5997 47.7216 26.7517 49.901 26.6237V26.3677C48.5692 26.2397 47.9638 25.5997 47.9638 24.7037C47.9638 23.5517 48.6902 23.0397 49.6589 23.0397C50.6275 23.0397 51.4752 23.6797 52.0806 24.4477L55.5919 20.3517L55.3498 20.0957L54.5021 21.1197C53.1702 19.8397 52.4438 19.4557 50.8698 19.1997V6.39972L60.5562 24.3197H61.2827V6.39972C63.0989 6.27172 64.794 4.73572 64.794 2.55972ZM73.6329 19.3277L70.606 21.7597L67.5789 19.1997V17.6637L73.2698 13.5677V13.4397L70.3638 8.83172L64.0675 12.4157V20.8637L62.8567 21.8877L63.0989 22.1437L64.1886 21.2477L68.3054 24.4477L73.754 19.8397L73.6329 19.3277ZM67.5789 17.1517V10.8797L67.821 10.7517L70.4848 15.2317L67.5789 17.1517ZM93.3692 10.2397L92.5217 10.8797L90.221 8.83172L87.5573 11.3917L88.6471 12.5437V22.1437L85.741 20.2237V12.2877L86.7098 11.6477L83.9248 8.83172L81.261 11.3917L82.3508 12.5437V21.7597L81.9875 22.0157L79.4448 20.0957V12.4157C79.4448 10.6237 78.5973 10.1117 77.6287 9.47172C76.781 8.83172 76.2967 8.44772 76.2967 7.55172C76.2967 6.78372 77.0233 6.39972 77.3865 6.14372V5.88772C76.4179 5.88772 73.8752 6.91172 73.8752 9.34372C73.8752 10.6237 74.4806 11.1357 75.086 11.7757C75.6913 12.4157 76.2967 12.9277 76.2967 14.0797V21.5037L74.9648 22.5277L75.2071 22.7837L76.4179 21.7597L79.2027 24.3197L82.2298 22.1437L85.62 24.3197L92.0373 20.3517V11.7757L93.6113 10.4957L93.3692 10.2397ZM115.89 3.19972L114.679 4.35172L112.016 1.79172L108.02 4.86372V2.04772H107.657L107.778 22.7837C107.415 22.7837 106.325 22.5277 105.477 22.2717L105.235 4.99172C105.235 3.71172 104.388 1.91972 102.208 1.91972C100.029 1.91972 98.5756 3.71172 98.5756 5.50372H98.9389C99.06 4.73572 99.4233 4.09572 100.15 4.09572C100.876 4.09572 101.482 4.60772 101.482 6.27172V11.2637C99.3021 11.3917 97.9702 12.6717 97.9702 14.3357C97.9702 15.3597 98.4546 16.8957 99.9075 16.8957V16.6397C99.4233 16.3837 99.3021 15.9997 99.3021 15.7437C99.3021 14.9757 99.9075 14.7197 100.876 14.7197H101.361V22.6557C99.5444 23.2957 98.8179 24.7037 98.8179 26.2397C98.8179 28.4157 100.392 29.9517 102.814 29.9517C104.509 29.9517 105.962 29.6957 107.415 29.3117C108.625 29.0557 110.199 28.6717 110.926 28.6717C111.895 28.6717 112.258 29.1837 112.258 29.8237C112.258 30.7197 111.895 31.1037 111.41 31.2317V31.4877C113.348 31.1037 114.558 29.8237 114.558 27.9037C114.558 25.9837 112.742 24.8317 110.805 24.8317C109.836 24.8317 107.778 25.2157 106.325 25.4717C104.63 25.8557 102.935 26.1117 102.45 26.1117C101.603 26.1117 100.634 25.7277 100.634 24.4477C100.634 23.4237 101.482 22.5277 103.54 22.5277C104.63 22.5277 105.962 22.6557 107.294 23.0397C108.746 23.4237 110.078 23.8077 111.289 23.8077C113.105 23.8077 114.679 23.1677 114.679 20.4797V4.73572L116.132 3.45572L115.89 3.19972ZM110.926 11.0077C110.563 11.3917 110.078 11.7757 109.473 11.7757C108.868 11.7757 108.262 11.3917 108.02 11.0077V5.37572L109.231 4.47972L110.926 6.14372V11.0077ZM110.926 14.8477C110.684 14.5917 110.078 14.2077 109.473 14.2077C108.868 14.2077 108.262 14.5917 108.02 14.8477V11.5197C108.262 11.7757 108.868 12.1597 109.473 12.1597C110.078 12.1597 110.684 11.7757 110.926 11.5197V14.8477ZM110.926 20.8637C110.926 21.8877 110.321 22.9117 108.989 22.9117H108.02V15.3597C108.262 15.1037 108.868 14.7197 109.473 14.7197C110.078 14.7197 110.563 15.1037 110.926 15.3597V20.8637ZM127.514 11.7757L123.639 8.83172L117.706 12.4157V20.7357L116.496 21.7597L116.617 22.0157L117.585 21.2477L121.46 24.3197L127.514 20.4797V11.7757ZM120.976 19.8397V10.6237L124.003 12.9277V22.0157L120.976 19.8397ZM139.017 9.08772H138.775C138.411 9.34372 138.048 9.59972 137.685 9.59972C137.201 9.59972 136.595 9.34372 136.353 8.95972H136.111L134.052 11.3917L131.994 8.95972L128.362 11.5197L128.483 11.7757L129.451 11.1357L130.662 12.5437V20.6077L129.088 21.8877L129.33 22.1437L130.057 21.5037L132.963 24.0637L136.716 21.3757L136.595 21.1197L135.505 21.7597L134.052 20.4797V11.5197C134.658 12.1597 135.384 12.7997 136.232 12.7997C137.927 12.9277 138.896 11.1357 139.017 9.08772ZM153.546 21.3757L149.43 24.3197L143.86 15.3597L147.856 8.83172H148.098C148.582 9.34372 149.309 9.85572 150.156 9.85572C151.004 9.85572 151.609 9.34372 151.972 8.83172H152.215C152.094 11.3917 150.398 12.9277 149.188 12.9277C147.977 12.9277 147.371 12.2877 146.645 11.9037L146.282 12.5437L152.336 22.0157L153.546 21.2477V21.3757ZM140.228 20.7357L138.654 22.0157L138.896 22.2717L139.622 21.6317L142.286 24.1917L145.918 21.6317L145.676 21.3757L144.708 22.0157L143.497 20.7357V1.02372H143.376L139.017 4.09572V4.35172C139.501 4.60772 140.228 4.73572 140.228 6.27172V20.7357ZM173.646 3.71172C173.646 1.15172 171.346 0.511719 169.529 0.511719V0.895719C170.619 0.895719 171.467 1.27972 171.467 2.17572C171.467 2.68772 171.104 3.45572 170.013 3.45572C169.166 3.45572 167.349 2.94372 166.018 2.43172C164.443 1.91972 162.991 1.40772 161.78 1.40772C159.359 1.40772 157.664 3.32772 157.664 5.50372C157.664 7.42372 158.995 8.06372 159.48 8.31972L159.6 8.06372C159.238 7.80772 158.874 7.55172 158.874 6.78372C158.874 6.27172 159.359 5.37572 160.569 5.37572C161.659 5.37572 163.112 5.88772 165.049 6.52772C166.745 7.03972 168.56 7.42372 169.529 7.55172V11.5197L167.713 13.1837V13.3117L169.529 14.9757V20.4797C168.56 21.1197 167.471 21.2477 166.502 21.2477C164.686 21.2477 163.112 20.7357 161.78 19.1997L166.745 16.6397V7.67972L160.691 10.4957C161.295 8.83172 162.627 7.67972 163.839 6.78372L163.718 6.52772C160.085 7.55172 156.815 11.0077 156.815 15.3597C156.815 20.4797 160.812 24.3197 165.292 24.3197C170.134 24.3197 173.282 20.2237 173.282 15.9997H173.04C172.314 17.6637 171.225 19.1997 169.893 19.9677V14.7197L171.829 13.0557V12.9277L170.013 11.2637V7.42372C171.829 7.42372 173.646 6.14372 173.646 3.71172ZM163.112 17.7917L161.659 18.5597C160.812 17.4077 160.327 15.8717 160.327 13.6957C160.327 12.7997 160.448 11.7757 160.691 11.0077L163.233 9.85572L163.112 17.7917ZM177.883 2.43172H177.762L175.341 4.60772V4.73572L177.4 7.16772H177.641L180.064 4.99172V4.86372L177.883 2.43172ZM181.517 21.3757L180.547 22.0157L179.336 20.7357V11.9037L180.547 11.0077L180.306 10.7517L179.458 11.5197L177.279 8.83172L173.767 11.3917L174.009 11.7757L174.856 11.1357L175.947 12.5437V20.8637L174.373 22.1437L174.493 22.3997L175.341 21.7597L178.005 24.3197L181.638 21.7597L181.517 21.3757ZM201.736 21.2477L200.889 21.8877L199.558 20.6077V11.9037L200.768 10.8797L200.526 10.6237L199.558 11.5197L196.773 8.83172L193.14 11.5197L190.355 8.83172L186.965 11.5197L184.786 8.83172L181.274 11.3917L181.395 11.7757L182.242 11.1357L183.453 12.5437V20.8637L182.485 21.8877L185.269 24.3197L187.933 21.7597L186.843 20.6077V11.9037L187.933 11.1357L189.749 12.9277V20.6077L188.781 21.6317L191.566 24.0637L194.229 21.5037L193.14 20.3517V11.9037L194.108 11.2637L196.046 13.0557V20.7357L195.199 21.6317L197.984 24.3197L201.736 21.6317V21.2477ZM212.271 19.3277L209.243 21.7597L206.216 19.1997V17.6637L211.907 13.5677V13.4397L209.001 8.83172L202.706 12.4157V21.1197L206.944 24.3197L212.392 19.7117L212.271 19.3277ZM206.216 17.1517V10.8797L206.459 10.7517L209.122 15.2317L206.216 17.1517ZM223.289 15.9997L220.988 14.0797C222.562 12.6717 223.168 10.7517 223.168 9.47172V8.70372H222.926C222.683 9.34372 222.2 9.98372 221.23 9.98372C220.262 9.98372 219.656 9.47172 219.052 8.70372L213.602 11.9037V16.5117L215.661 18.1757C213.602 20.0957 213.24 21.3757 213.24 22.3997C213.24 23.6797 213.845 24.5757 214.813 24.9597L214.934 24.7037C214.693 24.4477 214.451 24.3197 214.451 23.6797C214.451 23.2957 214.934 22.6557 215.904 22.6557C217.114 22.6557 217.84 23.5517 218.203 23.9357L223.411 20.6077V15.9997H223.289ZM221.958 12.1597C221.109 13.6957 219.293 15.2317 218.203 15.9997L216.872 14.8477V10.3677C217.357 11.6477 218.688 12.6717 220.02 12.6717C220.867 12.6717 221.352 12.5437 221.958 12.1597ZM219.899 22.3997C219.293 20.9917 217.84 19.9677 216.387 19.9677C216.025 19.9677 215.055 19.9677 214.087 20.6077C214.693 19.5837 216.267 17.7917 218.325 16.5117L219.778 17.7917L219.899 22.3997Z" fill="#2A2A2A"/>
</g>
</g>
<defs>
<clipPath id="clip0_871_2286">
<rect width="224" height="32" fill="white" transform="translate(0.5)"/>
</clipPath>
</defs>
</svg>
