<svg width="239" height="38" viewBox="0 0 239 38" fill="none" xmlns="http://www.w3.org/2000/svg">
<g clip-path="url(#clip0_871_2278)">
<path d="M13.7488 11.6987V25.1407C15.4917 24.1599 16.7122 22.4522 17.3047 20.5265L17.4444 20.5995C17.0605 25.3951 13.9229 30.1901 9.04197 30.1901C4.12596 30.1901 0.5 26.3759 0.5 20.272C0.5 15.6949 3.35882 12.8245 7.01981 10.245C6.48489 10.0988 5.93401 10.0255 5.38098 10.027C2.87043 10.027 1.40623 11.8072 1.40623 13.6238H1.19706C1.16203 13.3694 1.16203 13.1155 1.16203 12.861C1.16203 9.62764 2.80087 5.70389 6.77562 5.70389C9.3207 5.70389 11.2733 8.13792 14.2368 8.13792C15.4222 8.13792 16.8864 7.55652 17.4788 6.21228H17.5834C17.5489 8.57436 16.8518 11.0084 13.7488 11.6987ZM15.6313 25.4676C13.8879 27.3927 12.0054 29.0278 9.5649 29.0278C5.0327 29.0278 1.54637 25.3221 1.54637 19.9451C1.54637 16.7847 2.80139 15.0776 4.19602 13.079H4.05641C3.18469 13.9873 0.883821 16.2758 0.883821 20.1631C0.883821 26.1215 4.47475 29.7906 9.18159 29.7906C12.4588 29.7906 14.69 27.4296 15.7015 25.5041L15.6313 25.4676ZM17.0254 7.84802C16.433 9.01027 15.178 10.4995 12.6329 10.4995C10.0878 10.4995 7.75191 8.6828 5.69473 8.6828C3.81168 8.6828 2.52215 9.99107 2.03374 10.9719L2.06877 11.0449C2.73132 10.3545 3.74214 9.66413 5.38098 9.66413C8.10019 9.66413 9.84361 11.4083 12.5979 11.4083C15.5268 11.4083 16.8513 9.40968 17.0956 7.88452L17.0254 7.84802ZM7.33306 10.3545C5.55512 12.2801 3.91627 14.3872 3.91627 18.4924C3.91627 20.7445 4.64837 23.0695 6.2872 24.5228L7.29803 23.9773V14.2417L6.35676 14.7501L6.18262 14.3867L11.0636 11.6252C9.73904 11.3353 8.55357 10.718 7.33306 10.3545ZM13.365 11.7712C13.1208 11.8072 12.8771 11.8072 12.5979 11.8072C12.11 11.8072 11.6566 11.7712 11.2032 11.6617V22.2696L6.636 24.8502C7.57726 25.5766 8.7277 26.0125 10.1919 26.0125C11.3774 26.0125 12.4232 25.758 13.3645 25.3221L13.365 11.7712ZM8.3444 13.6244L7.68184 14.0238V23.7604L8.3444 23.397V13.6244ZM28.3917 15.0046V27.5746C28.3917 31.0619 25.4283 33.424 22.1162 34.1138L22.0465 33.9683C23.6854 33.1325 24.6267 31.4253 24.6267 29.6086V16.6027L22.7441 14.8231L22.0121 15.6584V25.7945L23.058 26.7753V26.8482L20.2341 30.0451L16.9919 26.9572V26.8118L18.247 25.4311V9.3737L21.9425 5.26905L22.0121 5.30502V15.0411L25.0456 11.6263L28.2181 14.6057L28.8106 13.9513L29.0898 14.2063L28.3917 15.0046ZM18.6298 26.8843V26.8118L19.3618 26.0485V8.75581L18.6298 9.5557V25.6856L17.5139 26.8482V26.9208L20.233 29.4637L20.721 28.8823L18.6298 26.8843ZM25.7421 16.0213L23.4757 13.9873L22.9879 14.5321L25.01 16.4218V29.5002C25.01 30.372 24.8358 31.2798 24.5221 31.7888L24.5571 31.8253C25.4288 31.1709 25.7427 30.19 25.7427 28.9188L25.7421 16.0213ZM33.9352 22.3067V24.1593L37.317 26.9203L39.2697 24.7407L39.5488 25.0311L35.0167 30.0805L30.4144 26.2299L29.7174 26.9928L29.4381 26.7023L30.2403 25.8305V16.6392L36.8297 11.6257L40.2815 17.4386L33.9352 22.3067ZM31.3552 25.5041V16.2758L30.6231 16.8212V25.8675L34.9467 29.5367L35.5046 28.9194L31.3552 25.5041ZM34.0053 14.3142L33.9352 14.3507V21.7983L37.0382 19.4367L34.0053 14.3142ZM34.9116 13.5878L34.284 14.0597L37.3526 19.1823L37.98 18.7098L34.9116 13.5878ZM63.0074 30.0446L58.1608 25.685L54.4654 30.0446L49.4448 25.5395V18.4194H48.4684C47.5967 18.4194 47.1438 19.0008 46.9342 19.6906H46.8296C46.7184 19.2395 46.6599 18.7761 46.6555 18.3104C46.6555 17.3656 46.8996 14.8956 49.4448 14.8956V8.64683C49.4448 7.44808 48.0852 6.97566 48.0852 5.37696C48.0852 3.30691 49.9677 1.2723 53.4195 0L53.5591 0.108978C52.3041 0.872361 51.6416 1.5987 51.6416 3.16089C51.6416 5.55895 53.8729 4.94104 53.8729 8.7193V10.1725L57.9523 5.70389L62.2407 10.0995L66.2851 5.70389L70.1898 9.70011V23.142L63.0074 30.0446ZM50.5607 24.9587V17.2937H48.6081C47.5967 17.2937 47.144 17.9835 47.0738 18.6014L47.1083 18.6379C47.4571 18.2385 47.8059 18.0205 48.6076 18.0205H49.8276V25.3592L54.4299 29.5008L54.9528 28.8463L50.5607 24.9587ZM50.5607 8.28339C50.5607 6.79421 49.3057 6.28528 49.3057 5.34099C49.3057 4.03272 49.7936 2.94348 50.5607 1.92617L50.4912 1.8902C49.4453 2.72605 48.469 4.0703 48.469 5.3775C48.469 6.68576 49.8287 7.30312 49.8287 8.46591V14.8961H50.5607V8.28339ZM57.9172 11.9167L55.2676 9.22823L53.8729 10.7174V23.5779L57.0454 26.3754L57.9172 25.3581V11.9167ZM59.0325 24.8862V11.4083L56.0692 8.3564L55.5112 8.9378L58.3005 11.7347V25.2856L63.0074 29.5362L63.5653 28.9907L59.0325 24.8862ZM65.7966 11.4443L63.6004 9.2642L62.3453 10.6084V23.542L65.7622 26.6658L65.7966 26.6299V11.4443ZM66.9119 10.9359L64.367 8.3564L63.844 8.9378L66.1799 11.2628V26.4484L66.9119 25.7215V10.9359ZM81.7266 30.0446L78.4143 26.9203L75.4509 30.0446L71.825 26.7023L71.3365 27.2472L71.0579 26.9568L71.6853 26.2664V16.5308L78.2402 11.5898L82.0057 14.6417L82.6684 13.9148L82.9475 14.2058L82.1804 15.0411V25.1047L84.0279 26.8843L84.6209 26.2304L84.8996 26.4849L81.7266 30.0446ZM72.8012 26.0125V16.2033L72.0692 16.7482V26.3759L75.4163 29.5002L75.9744 28.9188L72.8012 26.0125ZM78.4143 16.4578L75.5555 14.1327L75.4509 14.2058V24.7772L77.8218 26.9203L78.4143 26.3029V16.4578ZM79.5303 26.3394V15.9129L76.5668 13.4059L75.8698 13.9142L78.7981 16.3123V26.7023L81.727 29.4632L82.2499 28.8818L79.5303 26.3394ZM91.8722 18.2015H95.4632V25.976L89.9197 30.0446C89.1875 29.1727 88.1413 28.5554 86.8516 28.5554C85.8058 28.5554 84.9686 28.9188 83.8532 29.8996L83.6791 29.8266L88.421 22.6336H85.4921V15.8764L91.3149 11.6622C92.0119 12.2436 92.5349 12.57 93.4416 12.57C94.1391 12.57 95.1499 12.4245 95.9172 11.7712L96.0567 11.8437L91.8722 18.2015ZM87.9676 27.5017C86.9563 27.5017 86.1546 27.865 85.457 28.3734V28.4464C86.015 28.1919 86.573 28.1195 87.096 28.1195C87.8975 28.1195 89.1531 28.5194 89.9897 29.5367L90.792 28.9194C90.1289 28.1195 89.3272 27.5017 87.9676 27.5017ZM91.6977 21.3983H89.745L85.6657 27.5386L85.7008 27.6111C86.7115 26.8484 87.6879 26.34 88.8733 26.34C89.9192 26.34 91.0001 26.8482 91.6626 27.72L91.6977 27.6841V21.3983ZM86.6075 21.3983V15.55L85.8754 16.0949V22.1982H88.6992L89.2572 21.3989L86.6075 21.3983ZM93.8944 14.2777C93.1624 14.8231 92.744 15.1135 91.5234 15.1135C90.826 15.1135 89.9892 14.7866 89.3272 14.0597L89.2577 14.0962V19.4002H90.5822L93.9295 14.3136L93.8944 14.2777ZM92.221 13.9507C91.5936 13.9507 90.792 13.6244 90.2685 12.8975L89.3968 13.5149C90.0593 14.3507 90.6868 14.7136 91.6626 14.7136C92.2901 14.7136 93.1968 14.5316 94.1381 13.6957L94.1726 13.5873C93.5807 13.8423 92.8486 13.9507 92.221 13.9507ZM92.8136 20.2001H90.5472L90.0243 20.963H92.0815V28.0105L92.8136 27.4656V20.2001ZM107.491 15.0046V27.5746C107.491 31.0619 104.528 33.424 101.216 34.1138L101.146 33.9683C102.785 33.1325 103.727 31.4253 103.727 29.6086V16.6027L101.844 14.8231L101.112 15.6584V25.7945L102.158 26.7753V26.8482L99.3339 30.0451L96.0917 26.9572V26.8118L97.3468 25.4311V9.3737L101.042 5.26905L101.112 5.30502V15.0411L104.145 11.6263L107.318 14.6057L107.91 13.9513L108.19 14.2063L107.491 15.0046ZM97.7296 26.8843V26.8118L98.4616 26.0485V8.75581L97.7296 9.55515V25.685L96.6137 26.8478V26.9203L99.3329 29.4632L99.8208 28.8818L97.7296 26.8843ZM104.842 16.0213L102.576 13.9873L102.088 14.5321L104.11 16.4218V29.5002C104.11 30.372 103.936 31.2798 103.622 31.7888L103.657 31.8253C104.529 31.1709 104.842 30.19 104.842 28.9188L104.842 16.0213ZM113.837 30.0446L110.839 27.1747L110.141 27.9375L109.862 27.6466L110.664 26.7388V16.2398L109.2 14.7866L108.642 15.441L108.363 15.1501L111.5 11.5898L114.29 14.2058L114.987 13.4064L115.301 13.6609L114.429 14.6417V25.2502L116.103 26.8847L116.87 26.049L117.149 26.34L113.837 30.0446ZM111.78 26.4849V15.6584L109.967 13.9148L109.479 14.4962L111.048 16.0584V26.8482L113.837 29.4637L114.36 28.8823L111.78 26.4849ZM112.826 11.2993L109.967 8.57489L112.582 5.66846L115.441 8.39291L112.826 11.2993ZM111.048 7.99296L110.525 8.53785L112.791 10.7539L113.314 10.1366L111.048 7.99296ZM128.58 30.0446L125.546 27.1747V16.5668L123.698 14.8231L122.722 15.9129V25.7215L123.803 26.7748V26.9203L120.944 30.0446L117.701 26.9568V26.8478L118.957 25.4676V16.3123L117.318 14.7501L116.655 15.513L116.377 15.2225L119.549 11.6257L122.722 14.5687V15.295L126.034 11.6257L129.136 14.5321L129.834 13.7693L130.148 14.0597L129.311 14.9681V25.3581L130.88 26.8838L131.647 26.0119L131.926 26.3024L128.58 30.0446ZM119.375 26.8843V26.8118C119.375 26.8843 120.073 26.085 120.073 26.085V15.7669L118.085 13.8777L117.597 14.4226L119.34 16.0938V25.6845L118.259 26.8473V26.9197L120.944 29.4626L121.501 28.8453L119.375 26.8843ZM126.662 26.5939V15.9494L124.5 13.9148L123.942 14.5321L125.929 16.3848V26.9568L128.544 29.4997L129.102 28.8818L126.662 26.5939ZM138.411 36.5838C137.261 35.2761 136.458 34.7312 135.379 34.7312C134.228 34.7312 132.903 35.2036 131.543 35.9665L131.438 35.858L136.25 30.0451L132.833 27.2117L132.17 27.9385L131.892 27.6841L132.658 26.8123V16.5308L139.282 11.5898L142.979 14.6417L143.607 13.9148L143.885 14.2058L143.153 15.0411V27.4661C143.153 29.3553 144.163 29.2828 144.163 30.699C144.163 32.3337 141.898 33.8594 138.411 36.5838ZM133.774 26.5209V16.2398L133.042 16.7853V26.8482L136.493 29.7547L137.017 29.1003L133.774 26.5209ZM136.215 33.7869C135.064 33.7869 134.018 34.1503 133.042 34.8402V34.9132C133.67 34.6587 134.367 34.3318 135.552 34.3318C136.633 34.3318 137.54 34.9491 138.446 36.0395L139.144 35.4581C138.271 34.4048 137.226 33.7869 136.215 33.7869ZM140.468 30.299C139.597 29.7176 139.387 29.1003 139.387 27.5381V26.8838L133.6 33.8588L133.635 33.8948C134.75 33.2049 135.762 32.6966 137.4 32.6966C138.795 32.6966 139.737 33.2774 140.816 34.2223C141.479 33.6409 141.933 33.06 141.933 32.1517C141.933 31.4253 141.34 30.8804 140.468 30.299ZM139.387 16.4578L136.493 14.0968L136.424 14.1692V25.3221L138.656 27.1386L139.387 26.267V16.4578ZM141.514 29.7906C140.607 29.0638 140.503 28.4464 140.503 26.8843V15.8404L137.575 13.3699L136.912 13.8423L139.77 16.2033V27.3927C139.77 28.9548 139.84 29.3912 140.782 30.0446C141.619 30.626 142.281 31.2433 142.281 32.0792C142.281 32.2966 142.246 32.66 142.246 32.66L142.281 32.6966C142.456 32.5146 142.664 32.2241 142.664 31.7517C142.665 30.9529 142.281 30.408 141.514 29.7906ZM149.882 30.0446L146.674 27.4292L146.012 28.1919L145.732 27.9011L146.5 27.0293V14.3142H144.478L144.408 14.2417L145.628 12.3521H146.499V9.9186L150.195 5.8134L150.265 5.88642V12.3526H153.054L153.124 12.4256L151.903 14.3147H150.265V25.3227L152.183 26.8488L152.915 26.013L153.194 26.3035L149.882 30.0446ZM147.616 9.3007L146.883 10.1366V12.3526H147.616V9.3007ZM147.616 26.6664V14.3142H146.883V27.1023L149.847 29.5002L150.37 28.9188L147.616 26.6664ZM164.595 15.368V25.5401L158.703 30.0811L154.274 26.5939L153.75 27.2113L153.472 26.9203L154.1 26.1939V16.2398L160.272 11.6257L164.385 14.9686L165.047 14.2417L165.326 14.5321L164.595 15.368ZM155.216 25.831V15.9129L154.483 16.4578V26.2304L158.668 29.5727L159.331 29.0643L155.216 25.831ZM160.83 16.5668L157.9 14.1687L157.866 14.2052V25.0311L160.83 27.3562V16.5668ZM161.945 15.9129L158.703 13.2969L158.041 13.8053L161.213 16.3483V27.647L161.945 27.0662V15.9129ZM177.914 30.0446L174.88 27.1747V16.5668L173.031 14.8231L172.055 15.9129V25.7215L173.136 26.7748V26.9203L170.277 30.0446L167.035 26.9568V26.8478L168.29 25.4676V16.3123L166.652 14.7501L165.989 15.513L165.711 15.2225L168.883 11.6257L172.055 14.5687V15.295L175.368 11.6257L178.47 14.5321L179.168 13.7693L179.481 14.0597L178.645 14.9681V25.3581L180.214 26.8838L180.981 26.0119L181.259 26.3024L177.914 30.0446ZM168.708 26.8843V26.8118C168.708 26.8843 169.406 26.085 169.406 26.085V15.7669L167.419 13.8777L166.931 14.4226L168.675 16.0938V25.6845L167.593 26.8473V26.9197L170.279 29.4626L170.835 28.8453L168.708 26.8843ZM175.995 26.5939V15.9494L173.834 13.9148L173.276 14.5321L175.263 16.3848V26.9568L177.877 29.4997L178.435 28.8818L175.995 26.5939ZM199.452 30.0446C198.476 28.9548 198.127 28.5913 196.976 28.2644V35.3851L196.906 35.421L195.512 34.1127L191.467 38L191.398 37.964V28.1919C190.177 28.4824 188.887 29.1368 187.631 30.444L187.561 30.408C187.806 27.6107 189.13 25.5401 191.396 24.7407V17.6566H190.665C189.654 17.6566 189.096 18.2015 188.607 19.1823H188.504C188.399 18.8559 188.329 18.3464 188.329 17.5116C188.329 15.9854 189.409 14.3872 191.188 14.3872H191.396V10.4635L189.967 9.11925L189.27 9.84613L189.026 9.59166L192.547 5.70442L195.824 8.82882V12.1347L196.592 11.2628V7.08464H196.975V10.8994L201.611 5.70389L205.551 9.44618V25.2496L199.452 30.0446ZM191.398 26.8478C189.97 27.1382 188.958 28.0464 188.295 29.2452L188.33 29.3182C189.307 28.4464 190.213 28.047 191.398 27.756V26.8478ZM192.514 16.4218H190.596C189.272 16.4218 188.749 17.2937 188.714 18.311L188.749 18.3469C189.167 17.6201 189.585 17.3661 190.421 17.2577H191.782V37.0568L192.514 36.3299V16.4218ZM192.514 9.88209L190.771 8.21146L190.213 8.82882L191.782 10.2815V14.3867H192.514V9.88209ZM196.593 11.9527L195.827 12.7885V33.8234L196.593 34.5503V11.9527ZM201.161 11.1174L199.104 9.15575L196.976 11.5538V24.3413C198.79 24.5233 200.045 25.0682 201.126 26.3029L201.161 26.267V11.1174ZM196.976 26.8478V27.7925C198.162 28.083 198.65 28.4464 199.487 29.4632L200.288 28.8093C199.452 27.7196 198.616 27.0662 196.976 26.8478ZM202.276 10.5365L199.905 8.24743L199.347 8.86479L201.544 10.9719V27.865L202.276 27.2837V10.5365ZM217.721 15.368V25.5401L211.828 30.0811L207.4 26.5939L206.877 27.2113L206.599 26.9203L207.227 26.1939V16.2398L213.397 11.6257L217.512 14.9686L218.173 14.2417L218.453 14.5321L217.721 15.368ZM208.343 25.831V15.9129L207.61 16.4578V26.2304L211.794 29.5727L212.456 29.0643L208.343 25.831ZM213.955 16.5668L211.026 14.1687L210.992 14.2052V25.0311L213.955 27.3562V16.5668ZM215.071 15.9129L211.829 13.2969L211.166 13.8053L214.34 16.3483V27.647L215.071 27.0662V15.9129ZM225.809 18.2015H229.401V25.976L223.857 30.0446C223.125 29.1727 222.079 28.5554 220.788 28.5554C219.744 28.5554 218.906 28.9188 217.79 29.8996L217.617 29.8266L222.358 22.6336H219.429V15.8764L225.251 11.6622C225.949 12.2436 226.472 12.57 227.379 12.57C228.076 12.57 229.086 12.4245 229.854 11.7712L229.994 11.8437L225.809 18.2015ZM221.905 27.5017C220.893 27.5017 220.092 27.865 219.394 28.3734V28.4464C219.952 28.1919 220.51 28.1195 221.033 28.1195C221.836 28.1195 223.091 28.5194 223.927 29.5367L224.728 28.9194C224.067 28.1195 223.264 27.5017 221.905 27.5017ZM225.636 21.3983H223.683L219.604 27.5386L219.639 27.6111C220.65 26.8484 221.626 26.34 222.811 26.34C223.857 26.34 224.938 26.8482 225.601 27.72L225.635 27.6841L225.636 21.3983ZM220.545 21.3983V15.55L219.812 16.0949V22.1982H222.636L223.194 21.3989L220.545 21.3983ZM227.832 14.2777C227.099 14.8231 226.682 15.1135 225.46 15.1135C224.763 15.1135 223.926 14.7866 223.264 14.0597L223.194 14.0962V19.4002H224.519L227.865 14.3136L227.832 14.2777ZM226.158 13.9507C225.531 13.9507 224.728 13.6244 224.205 12.8975L223.334 13.5149C223.997 14.3507 224.625 14.7136 225.601 14.7136C226.228 14.7136 227.135 14.5316 228.076 13.6957L228.11 13.5873C227.518 13.8423 226.786 13.9507 226.158 13.9507ZM226.751 20.2001H224.485L223.962 20.963H226.019V28.0105L226.751 27.4656V20.2001ZM235.188 30.0446L231.981 27.4292L231.318 28.1919L231.04 27.9011L231.806 27.0293V14.3142H229.784L229.714 14.2417L230.934 12.3521H231.805V9.9186L235.501 5.8134L235.571 5.88642V12.3526H238.36L238.43 12.4256L237.21 14.3147H235.571V25.3227L237.489 26.8488L238.222 26.013L238.5 26.3035L235.188 30.0446ZM232.922 9.3007L232.19 10.1366V12.3526H232.922V9.3007ZM232.922 26.6664V14.3142H232.19V27.1023L235.153 29.5002L235.676 28.9188L232.922 26.6664Z" fill="#2A2A2A"/>
</g>
<defs>
<clipPath id="clip0_871_2278">
<rect width="238" height="38" fill="white" transform="translate(0.5)"/>
</clipPath>
</defs>
</svg>
